<?xml version="1.0" encoding="utf-8"?>
<!-- Generator: Adobe Illustrator 22.1.0, SVG Export Plug-In . SVG Version: 6.00 Build 0)  -->
<svg version="1.1" id="Layer_1" xmlns="http://www.w3.org/2000/svg" xmlns:xlink="http://www.w3.org/1999/xlink" x="0px" y="0px"
	 viewBox="0 0 135 40" style="enable-background:new 0 0 135 40;" xml:space="preserve">
<style type="text/css">
	.st0{fill:#FFFFFF;stroke:#FFFFFF;stroke-width:0.2;stroke-miterlimit:10;}
	.st1{opacity:0.2;enable-background:new    ;}
	.st2{opacity:0.12;enable-background:new    ;}
	.st3{fill:#FFFFFF;}
</style>
<path d="M130,40H5c-2.8,0-5-2.2-5-5V5c0-2.8,2.2-5,5-5h125c2.8,0,5,2.2,5,5v30C135,37.8,132.8,40,130,40z"/>
<path class="st0" d="M47.4,10.2c0,0.8-0.2,1.5-0.7,2c-0.6,0.6-1.3,0.9-2.2,0.9s-1.6-0.3-2.2-0.9c-0.6-0.6-0.9-1.3-0.9-2.2
	s0.3-1.6,0.9-2.2c0.6-0.6,1.3-0.9,2.2-0.9c0.4,0,0.8,0.1,1.2,0.3c0.4,0.2,0.7,0.4,0.9,0.7l-0.5,0.5c-0.4-0.5-0.9-0.7-1.6-0.7
	c-0.6,0-1.2,0.2-1.6,0.7c-0.5,0.4-0.7,1-0.7,1.7s0.2,1.3,0.7,1.7s1,0.7,1.6,0.7c0.7,0,1.2-0.2,1.7-0.7c0.3-0.3,0.5-0.7,0.5-1.2h-2.2
	V9.8h2.9C47.4,9.8,47.4,10.2,47.4,10.2z M52,7.7h-2.7v1.9h2.5v0.7h-2.5v1.9H52V13h-3.5V7H52V7.7z M55.3,13h-0.8V7.7h-1.7V7H57v0.7
	h-1.7V13z M59.9,13V7h0.8v6H59.9z M64.1,13h-0.8V7.7h-1.7V7h4.1v0.7H64L64.1,13z M73.6,12.2c-0.6,0.6-1.3,0.9-2.2,0.9
	c-0.9,0-1.6-0.3-2.2-0.9c-0.6-0.6-0.9-1.3-0.9-2.2s0.3-1.6,0.9-2.2s1.3-0.9,2.2-0.9c0.9,0,1.6,0.3,2.2,0.9s0.9,1.3,0.9,2.2
	S74.2,11.6,73.6,12.2z M69.8,11.7c0.4,0.4,1,0.7,1.6,0.7s1.2-0.2,1.6-0.7c0.4-0.4,0.7-1,0.7-1.7S73.5,8.7,73,8.3
	c-0.4-0.4-1-0.7-1.6-0.7s-1.2,0.2-1.6,0.7c-0.4,0.4-0.7,1-0.7,1.7S69.3,11.3,69.8,11.7z M75.6,13V7h0.9l2.9,4.7V7h0.8v6h-0.8
	l-3.1-4.9V13C76.3,13,75.6,13,75.6,13z"/>
<path class="st1" d="M27,24.1l-14.5,8.2c-0.8,0.5-1.5,0.4-2,0l-0.1,0.1l0.1,0.1c0.5,0.4,1.2,0.5,2,0L27,24.1z"/>
<path class="st2" d="M10.4,32.3C10.1,32,10,31.5,10,30.9V31c0,0.6,0.2,1.1,0.5,1.4v-0.1C10.5,32.3,10.4,32.3,10.4,32.3z M32,21.3
	l-5,2.8l0.1,0.1l4.9-2.8c0.7-0.4,1-0.9,1-1.4C33,20.5,32.6,20.9,32,21.3z"/>
<path class="st3" d="M26.2,20c0-1.7,0.9-3.3,2.4-4.2c-0.9-1.3-2.4-2.1-4-2.2c-1.7-0.2-3.3,1-4.2,1s-2.2-1-3.6-1
	c-1.9,0.1-3.6,1.1-4.5,2.7c-1.9,3.3-0.5,8.3,1.4,11c0.9,1.3,2,2.8,3.4,2.8c1.4-0.1,1.9-0.9,3.6-0.9s2.1,0.9,3.6,0.9s2.4-1.3,3.3-2.7
	c0.7-0.9,1.2-2,1.5-3.1C27.3,23.7,26.2,21.9,26.2,20z M23.4,11.9c0.8-1,1.2-2.2,1.1-3.5c-1.2,0.1-2.4,0.7-3.2,1.7
	c-0.8,0.9-1.2,2.1-1.1,3.4C21.5,13.5,22.6,12.9,23.4,11.9z M47.2,27h-4.7l-1.1,3.4h-2L43.9,18h2l4.5,12.4h-2
	C48.4,30.4,47.2,27,47.2,27z M43,25.5h3.8L44.9,20h-0.1C44.8,20,43,25.5,43,25.5z M60.1,25.9c0,2.8-1.5,4.6-3.8,4.6
	c-1.2,0.1-2.3-0.6-2.8-1.6v4.5h-1.9v-12h1.8v1.5c0.6-1,1.7-1.6,2.9-1.6C58.5,21.2,60.1,23.1,60.1,25.9z M58.1,25.9
	c0-1.8-0.9-3-2.4-3c-1.4,0-2.4,1.2-2.4,3s1,3,2.4,3C57.2,28.9,58.1,27.7,58.1,25.9z M70,25.9c0,2.8-1.5,4.6-3.8,4.6
	c-1.2,0.1-2.3-0.6-2.8-1.6v4.5h-1.9v-12h1.8v1.5c0.6-1,1.7-1.6,2.9-1.6C68.5,21.2,70,23.1,70,25.9z M68.1,25.9c0-1.8-0.9-3-2.4-3
	c-1.4,0-2.4,1.2-2.4,3s1,3,2.4,3C67.2,28.9,68.1,27.7,68.1,25.9z M76.6,26.9c0.1,1.2,1.3,2,3,2c1.6,0,2.7-0.8,2.7-1.9
	c0-1-0.7-1.5-2.3-1.9l-1.6-0.4c-2.3-0.5-3.3-1.6-3.3-3.3c0-2.1,1.9-3.6,4.5-3.6s4.4,1.5,4.5,3.6h-1.9c-0.1-1.2-1.1-2-2.6-2
	s-2.5,0.8-2.5,1.9c0,0.9,0.7,1.4,2.3,1.8l1.4,0.3c2.5,0.6,3.6,1.6,3.6,3.4c0,2.3-1.8,3.8-4.8,3.8c-2.8,0-4.6-1.4-4.7-3.7
	C74.9,26.9,76.6,26.9,76.6,26.9z M88.2,19.2v2.1h1.7v1.5h-1.7v5c0,0.8,0.3,1.1,1.1,1.1h0.6v1.5c-0.3,0.1-0.7,0.1-1,0.1
	c-1.8,0-2.5-0.7-2.5-2.4v-5.2h-1.3v-1.5h1.3v-2.1h1.8L88.2,19.2z M90,25.9c0-2.8,1.7-4.6,4.3-4.6c2.6,0,4.3,1.8,4.3,4.6
	c0,2.9-1.7,4.6-4.3,4.6C91.6,30.5,90,28.7,90,25.9z M96.7,25.9c0-2-0.9-3.1-2.4-3.1s-2.4,1.1-2.4,3.1s0.9,3.1,2.4,3.1
	S96.7,27.8,96.7,25.9z M101.1,21.3h1.8v1.6c0.2-1,1.2-1.7,2.2-1.6c0.2,0,0.4,0,0.6,0.1v1.7c-0.3-0.1-0.6-0.1-0.8-0.1
	c-1,0-1.9,0.8-1.9,1.8v5.7h-1.9C101.1,30.5,101.1,21.3,101.1,21.3z M114.3,27.7c-0.2,1.6-1.8,2.8-3.9,2.8c-2.6,0-4.3-1.8-4.3-4.6
	s1.6-4.7,4.2-4.7c2.5,0,4.1,1.7,4.1,4.5v0.6H108v0.1c-0.1,1.3,0.8,2.4,2.1,2.6h0.3c0.9,0.1,1.8-0.4,2.1-1.3
	C112.5,27.7,114.3,27.7,114.3,27.7z M108,25h4.5c0.1-1.2-0.9-2.2-2.1-2.3h-0.2C109,22.7,108,23.7,108,25z"/>
</svg>
