<?xml version="1.0" encoding="utf-8"?>
<!-- Generator: Adobe Illustrator 22.1.0, SVG Export Plug-In . SVG Version: 6.00 Build 0)  -->
<svg version="1.1" id="efa50409-81c4-4ecf-9396-e4ad4f0a015a"
	 xmlns="http://www.w3.org/2000/svg" xmlns:xlink="http://www.w3.org/1999/xlink" x="0px" y="0px" viewBox="0 0 550 425.8"
	 style="enable-background:new 0 0 550 425.8;" xml:space="preserve">
<style type="text/css">
	.st0{fill:#FFFCEF;}
	.st1{opacity:0.1;fill:#6C63FF;enable-background:new    ;}
	.st2{fill:#A1A3B2;}
	.st3{fill:#F4F5F6;}
	.st4{opacity:0.2;}
	.st5{fill:#6C63FF;}
	.st6{fill:#FFD578;}
	.st7{opacity:0.2;fill:#6C63FF;enable-background:new    ;}
	.st8{fill:url(#SVGID_1_);}
	.st9{fill:#636E7E;}
	.st10{opacity:0.1;enable-background:new    ;}
	.st11{fill:#63667E;}
	.st12{fill:#E29D9D;}
	.st13{fill:#F1C0C0;}
	.st14{fill:#765656;}
	.st15{fill:#896363;}
	.st16{opacity:0.1;fill:none;stroke:#000000;stroke-width:2;stroke-miterlimit:10;enable-background:new    ;}
	.st17{fill:none;stroke:#000000;stroke-width:2;stroke-miterlimit:10;}
</style>
<title>art lover</title>
<path class="st0" d="M29.1,21.9c-14.9,9.6-26.1,27-27.4,46c-2,27.6,15.7,52.1,34.5,70.6s40.4,35.1,51.4,60.1
	c12,27.4,7.9,62.5-10,85.7c-7.7,10-18.5,20.1-17,33.1c1.4,12.1,13.7,19.7,24.9,19.2c11.1-0.6,21.2-7,30.9-13
	c34.8-21.5,72.7-39.9,112.7-40.2c42.8-0.4,83.2,19.9,122,39.8l55.8,28.6c11.6,5.9,23.5,12,36.2,13.3c12.7,1.3,25.7-2.4,37-8.9
	c12.1-7,23.1-18.6,25.6-33.4c3.3-19.7-9-38.4-10.7-58.3c-1.6-19.7,7.3-38.6,17.7-54.8c10.4-16.1,22.7-31.2,29.5-49.6
	c13.9-37.7,0.4-83.1-26.3-111.3s-64-41.4-100.9-45.3C401,1.9,387,1.6,373.3,3.9c-27.3,4.5-52.4,18.7-78.4,29.1
	c-46.4,18.6-98.2,25-145.2,8.4C111.8,28.1,68.3-3.4,29.1,21.9z"/>
<ellipse class="st1" cx="268.8" cy="400.3" rx="149.2" ry="24.6"/>
<path class="st2" d="M370.3,223.3V21.5H156.2v263h214.1v-25.4c0,0,0.1-28.2,0.1-28.3C370.5,223.6,370.5,230.6,370.3,223.3z"/>
<rect x="162.4" y="29.1" class="st3" width="201.8" height="247.9"/>
<g class="st4">
	<path class="st5" d="M217.8,78.8L217.8,78.8L217.8,78.8L217.8,78.8z"/>
	<path class="st5" d="M217.7,78.8L217.7,78.8L217.7,78.8L217.7,78.8z"/>
	<path class="st5" d="M220.3,79.3l-2.4-0.4C218.6,79.2,219.5,79.3,220.3,79.3z"/>
	<path class="st5" d="M191.3,76.4L191.3,76.4L191.3,76.4L191.3,76.4z"/>
	<path class="st5" d="M193.9,76.9l-2.4-0.4C192.3,76.8,193.1,76.9,193.9,76.9z"/>
	<path class="st5" d="M191.5,76.4L191.5,76.4L191.5,76.4L191.5,76.4z"/>
</g>
<g>
	<g>
		<path class="st6" d="M344.7,68.7c0,3.4-0.4,6.4-1.2,9c-0.8,2.6-2,5-3.5,7.1c-1.5,2.2-3.3,4.2-5.5,6.1c-2.1,1.9-4.6,3.9-7.3,6
			c-1.7,1.3-3,2.5-4.1,3.6c-1.1,1-2,2.1-2.6,3.2c-0.6,1.1-1.1,2.2-1.3,3.4c-0.3,1.2-0.4,2.6-0.4,4.3v4h-24.2v-5.9
			c0-2.7,0.3-5.1,0.8-7.2c0.5-2.1,1.3-4.1,2.3-5.8c1-1.8,2.3-3.5,3.8-5.1c1.5-1.7,3.3-3.4,5.4-5.1l5.1-4.8c1.8-1.6,3.3-3.2,4.5-4.9
			c1.2-1.7,1.9-3.7,1.9-6.1c0-3.3-1-5.9-3-7.9c-2-2-4.8-2.9-8.3-2.9c-4.3,0-7.6,1.5-9.8,4.4c-2.2,2.9-3.4,6.3-3.6,10L269,71.4
			c0.6-5.6,2-10.5,4.3-14.7c2.2-4.2,5.1-7.8,8.6-10.5c3.5-2.8,7.5-4.9,12-6.3c4.5-1.4,9.2-2.1,14.2-2.1c4.7,0,9.2,0.6,13.6,1.8
			c4.4,1.2,8.3,3.1,11.7,5.6c3.4,2.5,6.2,5.8,8.2,9.7C343.7,58.7,344.7,63.4,344.7,68.7z M321.9,137.3c0,4.1-1.4,7.6-4.3,10.5
			c-2.9,2.8-6.5,4.3-10.7,4.3c-2.1,0-4-0.4-5.8-1.1c-1.8-0.7-3.4-1.8-4.8-3.1c-1.4-1.3-2.5-2.9-3.3-4.7c-0.8-1.8-1.2-3.7-1.2-5.7
			c0-2,0.4-3.9,1.2-5.7c0.8-1.8,1.9-3.4,3.3-4.7c1.4-1.3,3-2.4,4.9-3.2c1.9-0.8,3.8-1.2,5.9-1.2c2.1,0,4,0.4,5.8,1.2
			c1.8,0.8,3.4,1.8,4.8,3.1c1.4,1.3,2.5,2.8,3.3,4.7C321.5,133.4,321.9,135.3,321.9,137.3z"/>
	</g>
</g>
<g>
	<g>
		<path class="st6" d="M258.5,68.7c0,3.4-0.4,6.4-1.2,9c-0.8,2.6-2,5-3.5,7.1c-1.5,2.2-3.3,4.2-5.5,6.1c-2.1,1.9-4.6,3.9-7.3,6
			c-1.7,1.3-3,2.5-4.1,3.6c-1.1,1-2,2.1-2.6,3.2c-0.6,1.1-1.1,2.2-1.3,3.4c-0.3,1.2-0.4,2.6-0.4,4.3v4h-24.2v-5.9
			c0-2.7,0.3-5.1,0.8-7.2c0.5-2.1,1.3-4.1,2.3-5.8c1-1.8,2.3-3.5,3.8-5.1c1.5-1.7,3.3-3.4,5.4-5.1l5.1-4.8c1.8-1.6,3.3-3.2,4.5-4.9
			c1.2-1.7,1.9-3.7,1.9-6.1c0-3.3-1-5.9-3-7.9c-2-2-4.8-2.9-8.3-2.9c-4.3,0-7.6,1.5-9.8,4.4c-2.2,2.9-3.4,6.3-3.6,10l-24.7-2.6
			c0.6-5.6,2-10.5,4.3-14.7c2.2-4.2,5.1-7.8,8.6-10.5c3.5-2.8,7.5-4.9,12-6.3c4.5-1.4,9.2-2.1,14.2-2.1c4.7,0,9.2,0.6,13.6,1.8
			c4.4,1.2,8.3,3.1,11.7,5.6c3.4,2.5,6.2,5.8,8.2,9.7C257.5,58.7,258.5,63.4,258.5,68.7z M235.7,137.3c0,4.1-1.4,7.6-4.3,10.5
			c-2.9,2.8-6.5,4.3-10.7,4.3c-2.1,0-4-0.4-5.8-1.1c-1.8-0.7-3.4-1.8-4.8-3.1c-1.4-1.3-2.5-2.9-3.3-4.7c-0.8-1.8-1.2-3.7-1.2-5.7
			c0-2,0.4-3.9,1.2-5.7c0.8-1.8,1.9-3.4,3.3-4.7c1.4-1.3,3-2.4,4.9-3.2c1.9-0.8,3.8-1.2,5.9-1.2c2.1,0,4,0.4,5.8,1.2
			c1.8,0.8,3.4,1.8,4.8,3.1c1.4,1.3,2.5,2.8,3.3,4.7C235.3,133.4,235.7,135.3,235.7,137.3z"/>
	</g>
</g>
<g class="st4">
	<path class="st5" d="M340.6,229.1L340.6,229.1L340.6,229.1L340.6,229.1z"/>
	<path class="st5" d="M340.4,229.1L340.4,229.1L340.4,229.1L340.4,229.1z"/>
	<path class="st5" d="M343,229.5l-2.4-0.4C341.4,229.5,342.2,229.6,343,229.5z"/>
	<path class="st5" d="M314.1,226.7L314.1,226.7L314.1,226.7L314.1,226.7z"/>
	<path class="st5" d="M314.2,226.7L314.2,226.7L314.2,226.7L314.2,226.7z"/>
	<path class="st5" d="M316.7,227.2l-2.4-0.4C315,227.1,315.9,227.2,316.7,227.2z"/>
</g>
<path class="st7" d="M224.4,161.5c1,0,2.1,0.1,3.5,0.1c1.2,0,2.2,0,3.3,0c2.2,0,4.8,0,7.2,0c1.6,0,3.1,0,4.6,0c1.1,0,2,0,3,0
	c1,0,2.3,0,3,0l1.2,0.2c0.2,0,0.4,0,0.6,0c0.4,0,1,0,1.4,0c0.2,0.1-1.4,0.1-3.4,0.1c-1.3,0-2.7,0-4,0c-1.5,0-2.7,0-4.1,0.1
	c-1.3,0-2.8,0-4.1,0c-1.6,0-2.9,0-4.4-0.1c-3.6,0-7.9,0-11.3-0.1H220c-0.3,0,0,0,0-0.1c-0.3-0.1-0.6-0.1-0.9-0.1
	c-0.4,0-0.5-0.1,0.3-0.1C221.3,161.5,222.1,161.4,224.4,161.5z"/>
<path class="st7" d="M268.8,120.5c0.5,0,1.1,0.1,1.8,0.1c0.7,0,1.1,0,1.7,0c1.2,0,2.5,0,3.8,0c0.8,0,1.6,0,2.4,0c0.6,0,1,0,1.6,0
	c0.5,0,1.2,0,1.6,0l0.6,0.2c0.1,0,0.2,0,0.3,0c0.2,0,0.5,0,0.8,0c0.1,0.1-0.7,0.1-1.8,0.1c-0.7,0-1.4,0-2.1,0c-0.8,0-1.4,0-2.2,0.1
	c-0.7,0-1.5,0-2.2,0c-0.8,0-1.5,0-2.3-0.1c-1.9,0-4.1,0-5.9-0.1h-0.4c-0.1,0,0,0,0-0.1c0,0-0.3-0.1-0.4-0.1c-0.2,0-0.3-0.1,0.2-0.1
	C267,120.5,267.9,120.4,268.8,120.5z"/>
<linearGradient id="SVGID_1_" gradientUnits="userSpaceOnUse" x1="322.7069" y1="-17.7497" x2="322.7069" y2="303.2825" gradientTransform="matrix(1 0 0 -1 -56.6 397.114)">
	<stop  offset="0" style="stop-color:#808080;stop-opacity:0.25"/>
	<stop  offset="0.54" style="stop-color:#808080;stop-opacity:0.12"/>
	<stop  offset="1" style="stop-color:#808080;stop-opacity:0.1"/>
</linearGradient>
<path class="st8" d="M319.1,200.7c-2.5-7.3-7-21.4-6.8-26.3c0.1-3.4-2.5-8.1-5.1-12l1.5-4.1l-0.2-0.3l0.2-0.5c0,0-2-3.5-2.3-5.7
	c0-0.1,0-0.1,0-0.2c0.1-0.3,0.1-0.4-0.1-0.5c0-0.1,0-0.2,0.1-0.3c0.6-1.9-3.9,2.1-3.9,2.1l0.2,0.6l-0.2,0.2l0.5,1.4
	c-1-0.5-2.1-1.2-3.3-1.8c0.5-0.9,0.7-2,0.6-3c0-1.6-0.4-3.1-1.1-4.5c-1.2-2.3-3-4.2-4.1-6.5c-0.1-0.2-0.2-0.4-0.2-0.6
	c0-0.1,0-0.1,0.1-0.2c0.2-0.3,0.6-0.5,0.9-0.7c0.6-0.6,0.8-1.4,0.6-2.1c0-0.6,0-1.2-0.2-1.7c-0.8-3.4-2.1-6.6-3.9-9.5
	c-0.9-1.4-1.8-2.8-2.3-4.4c-0.5-1.8-0.2-3.8-0.6-5.6c-0.5-2-1.7-3.7-3-5.3l-9.9-12.9c-0.4-0.6-1-1.2-1.6-1.7c-1.9-1.3-4.1-0.5-6,0.3
	c-2.2,0.9-3.2-0.1-5.4,0c-1.2,0.1-2.4,0.6-2.8,1.7c-0.3,0.7-0.2,1.5-0.3,2.2c-0.4,1.6-1.9,2.6-3.2,3.8c-3.7,3.1-5.8,7.6-5.8,12.4
	c0,1.2,0.1,2.5,0.4,3.7c-1.9,2.9-3.7,5.7-3.6,9c0,0.3,0,0.6,0,0.9c0,0.6,0.2,1.3,0.2,1.9c0,0.2,0,0.4-0.1,0.6c-0.6,2.1-3,3-5.1,4
	c-5.5,2.6-9.5,7.6-10.8,13.5c-1.7,0.8-3.3,1.6-4.7,2.2l0.3-0.3l-3.7-1.9c0,0-1.7,5.6-3.9,7c-0.4,0.3-0.6,0.9-0.4,1.4
	c-0.3,1.2,1.2,3.3,2.5,4.9c-1.5,2.9-2.9,6-3.2,8.5c-0.8,6.4-4.2,16.4-4.2,16.4s-6.4,10.2,0,21.2c6.4,11,17,4.6,17,4.6
	s-0.9,5.1-1.8,10c-1,4.7-1.8,8.7-1.8,8.7l0,0c-1,5.1-1.7,14-1.7,14s-3.1,37.6-4.7,40c-0.6,0.8,3.6,3.4,11.5,5.8
	c0.1,0.5,0.3,0.9,0.4,1.4c1.8,6.2,4,15.9,3.3,23.9c0,0,0.6,4.3-1.1,12.9c-1.7,8.6-2,33.3,2,44.8v10.8c-0.7,0.4-1.3,1.6-0.7,5.5
	l0.8,3.8c0,0-2.8-5.1-6.4,4s9.5,16.1,15.6,16.6c1.3,0.1,2.5,0.1,3.8-0.1c1.7-0.3,2.9-1.9,2.7-3.6c0-0.2-0.1-0.4-0.2-0.6l-0.5-1.3
	c0,0,2.5-8-0.3-11.3c0,0,3.6-11,1.7-12.3c0,0-0.5-0.1-1.3,0.7c0-0.2-0.1-0.4-0.1-0.7c-0.4-2.3-1.1-7.7,0.2-10.2
	c1.7-3.2,3.1-21.2,3.1-21.2l0.6-20.1l3.1-11.3c0,0,2-7.2,1.1-13.1c-0.5-3.6,0.3-9,1.1-12.7c0.1-0.5,0.2-0.9,0.3-1.3
	c2.7,0.1,5.5,0.2,8.4,0.2c0.1,0.4,0.2,0.9,0.3,1.3h0.1c0.7,3.7,1.5,9,1,12.5c-0.8,5.9,1.1,13.1,1.1,13.1L277,334l0.6,20.1
	c0,0,1.4,18,3.1,21.2c1.3,2.5,0.6,8,0.2,10.3l0,0.2c0,0.3-0.1,0.4-0.1,0.6c-1-1-1.6-0.9-1.6-0.9c-2,1.3,1.7,12.3,1.7,12.3
	c-2.8,3.2-0.3,11.3-0.3,11.3l-0.5,1.3c-0.6,1.7,0.3,3.5,1.9,4.1c0.2,0.1,0.4,0.1,0.6,0.2c1.3,0.2,2.5,0.2,3.8,0.1
	c6.1-0.5,19.3-7.5,15.6-16.6c-3.6-9.1-6.4-4-6.4-4l0.8-3.8c0.6-3.4,0.1-4.8-0.4-5.3V374c3.9-11.6,3.6-36.2,2-44.8
	c-1.7-8.6-1.1-12.9-1.1-12.9c-0.6-7.2,1.1-15.8,2.8-22c0.1-0.5,0.3-1,0.4-1.5c3-0.6,6.1-1.2,9.2-2c4.7-1.1-3.4-19,0-25.2
	c2.7-4.9-6.7-33-10.5-43.9l0,0l-0.9-4.1c2.1,0.8,9.7,3,15.6-3.2c1.6-1.7,2.9-3,3.8-4.2C319.5,207.6,320.2,204,319.1,200.7z
	 M297.3,217.5l-0.1-0.1L297.3,217.5L297.3,217.5z"/>
<path class="st9" d="M262.8,297.3c-0.7,3.7-1.5,9-1,12.6c0.8,5.9-1.1,13.1-1.1,13.1l-2.9,11.2l-0.5,20.1c0,0-1.3,17.9-2.9,21.1
	c-1.2,2.5-0.6,7.9-0.2,10.2c0.1,0.7,0.2,1.1,0.2,1.1c-2.1,16-14.7,1.1-14.7,1.1v-13.6c-3.7-11.5-3.5-36.1-1.9-44.7
	s1.1-12.8,1.1-12.8c0.7-8-1.5-17.7-3.2-23.9c-1-3.7-1.9-6.1-1.9-6.1l30,6.7C263.7,293.3,263.3,295,262.8,297.3z"/>
<path class="st10" d="M254.3,386.7c-2.1,16-14.7,1.1-14.7,1.1v-3.7c0.3-0.2,0.6-0.2,0.9-0.1c-0.6,2.1,0.2,3.6,1.7,4.8
	c3.2,2.5,7.9,1.9,10.4-1.3c0.1-0.1,0.1-0.2,0.2-0.3c0.4-0.6,0.8-1.1,1.3-1.6C254.2,386.3,254.3,386.7,254.3,386.7z"/>
<path class="st10" d="M294.7,384.2v3.6c0,0-12.6,15-14.7-1.1c0,0,0.1-0.4,0.2-1c0.4,0.4,0.8,0.9,1.2,1.5c2.3,3.3,6.9,4.1,10.3,1.8
	c0.1-0.1,0.2-0.1,0.3-0.2c1.4-1.2,2.3-2.7,1.7-4.8C294,383.9,294.4,383.9,294.7,384.2z"/>
<path class="st11" d="M240.5,384.8c0,0-2.7-1.1-1.6,5.6l0.8,3.7c0,0-2.7-5.1-6.1,4c-3.5,9.1,9.1,16,15,16.6c1.2,0.1,2.4,0.1,3.6-0.1
	c1.7-0.3,2.9-2,2.6-3.7c0-0.2-0.1-0.3-0.1-0.5l-0.5-1.3c0,0,2.4-8-0.3-11.2c0,0,3.5-11,1.6-12.3c0,0-0.9-0.1-2.7,2.4
	c-2.3,3.3-6.9,4.1-10.3,1.8c-0.1-0.1-0.2-0.1-0.3-0.2C240.8,388.4,239.9,386.9,240.5,384.8z"/>
<path class="st9" d="M298.2,294.7c-1.6,6.1-3.3,14.7-2.7,21.9c0,0-0.5,4.3,1.1,12.8s1.9,33.2-1.9,44.7v13.6c0,0-12.6,15-14.7-1.1
	c0,0,0.1-0.3,0.1-0.7l0-0.2c0.4-2.2,1.1-7.7-0.2-10.3c-1.6-3.2-2.9-21.1-2.9-21.1l-0.5-20.1l-2.9-11.2c0,0-1.9-7.2-1.1-13.1
	c0.5-3.5-0.3-8.8-1-12.5c-0.5-2.4-0.9-4.1-0.9-4.1l30-6.7C300.6,286.6,299.4,289.9,298.2,294.7z"/>
<path class="st10" d="M294.7,384.4v3.3c0,0-12.6,15-14.7-1.1c0,0,0.1-0.3,0.1-0.7c0.5,0.5,0.9,1,1.3,1.5c2.3,3.3,6.9,4.1,10.3,1.8
	c0.1-0.1,0.2-0.1,0.3-0.2c1.4-1.2,2.3-2.7,1.7-4.8C294,384.1,294.4,384.2,294.7,384.4z"/>
<path class="st11" d="M293.5,384.8c0,0,2.7-1.1,1.6,5.6l-0.8,3.7c0,0,2.7-5.1,6.1,4c3.5,9.1-9.1,16-15,16.6
	c-1.2,0.1-2.4,0.1-3.6-0.1c-1.7-0.3-2.9-2-2.6-3.7c0-0.2,0.1-0.4,0.1-0.5l0.5-1.3c0,0-2.4-8,0.3-11.2c0,0-3.5-11-1.6-12.3
	c0,0,0.9-0.1,2.7,2.4c2.3,3.3,6.9,4.1,10.3,1.8c0.1-0.1,0.2-0.1,0.3-0.2C293.3,388.4,294.1,386.9,293.5,384.8z"/>
<path class="st10" d="M233.7,286.7l30,6.7c0,0-0.4,1.6-0.8,3.9c-11.3-0.6-20.6-2.5-27.2-4.5C234.6,289.1,233.7,286.7,233.7,286.7z"
	/>
<path class="st10" d="M300.4,286.7c0,0-1.2,3.3-2.4,8c-8.8,1.7-17.7,2.6-26.7,2.7c-0.5-2.4-0.9-4.1-0.9-4.1L300.4,286.7z"/>
<path class="st12" d="M229.8,153.7c0,0-7.5,11-8.3,17.4c-0.8,6.4-4,16.3-4,16.3s-6.1,10.2,0,21.1c6.1,11,16.3,4.6,16.3,4.6
	s-2.1,12.8-3.2,17.7c-1.1,4.8-1.9,15-1.9,15s-2.9,37.4-4.5,39.8c-1.6,2.4,33.7,18.5,83.2,5.6c0,0-3.2-19,0-25.1
	c3.2-6.1-11.5-48.1-11.5-48.1s8.8,4.3,15.5-2.9c1.5-1.7,2.7-3,3.7-4.2c2.2-2.6,2.8-6.2,1.8-9.5c-2.4-7.3-6.7-21.4-6.5-26.2
	c0.3-6.7-9.9-18.7-9.9-18.7L229.8,153.7z"/>
<path class="st13" d="M266.4,144.1c-8.3-2.5-17.3-1.9-25.1,1.9c-7.1,3.4-14.7,7.1-15.7,7.9c-1.9,1.6,0,2.9,0,2.9l21.1,2.4h42l16-1.3
	c0,0-14.7-9.4-22.2-9.9C279,147.7,272.3,145.9,266.4,144.1z"/>
<path class="st10" d="M295.4,217.9l-1.9-8.3c0.5-5.3,1.5-10.4,2.9-15.5c2.4-8-0.5-19.3-0.5-19.3"/>
<path class="st10" d="M233.9,174.9c0,0-1.6,6.1,0,9.6c1.6,3.5,0,11,0,11s-0.5,12.3,0.8,16.3"/>
<path class="st10" d="M247,184.8c0,0-3.5,9.1-5.1,11.2c-1.6,2.1-3.5,11.2-5.3,13.1s-5.8,23.7-5.8,23.7s10.9,8.4,16.3,15.3
	s34-1.9,34-1.9s2.1-10.2,5.6-11.8c1.3-0.6,1.4-1.3,1.1-2c-1.7-3.5-2.7-7.2-3-11.1c-0.8-10.2-3.3-26.5-11.1-33.7L247,184.8z"/>
<path class="st6" d="M246.7,183.7c0,0-3.5,9.1-5.1,11.2c-1.6,2.1-3.5,11.2-5.3,13.1c-1.9,1.9-5.8,23.7-5.8,23.7s10.9,8.4,16.3,15.3
	c5.3,7,34-1.9,34-1.9s2.1-10.2,5.6-11.8c1.3-0.6,1.4-1.3,1.1-2c-1.7-3.5-2.7-7.2-3-11.1c-0.8-10.2-3.3-26.5-11.1-33.7L246.7,183.7z"
	/>
<circle class="st10" cx="257.8" cy="237.6" r="4.8"/>
<path class="st10" d="M253.7,186.1c0,0-6.7,8-2.7,14.4l1.9,0.8c0,0,1.1-13.9,2.4-14.7L253.7,186.1z"/>
<path class="st10" d="M259.5,186.1c0,0-1.9,14.7-0.5,16c0,0,5.1,1.1,5.6-0.8c0,0-2.9-12.6-2.1-14.2L259.5,186.1z"/>
<path class="st10" d="M266,187.3c0,0,2.1,11,4,9.1s-1.3-9.1-1.3-9.1H266z"/>
<path class="st10" d="M250.2,188c0,0,16,3.2,24.6,0.5c8.6-2.7,30.5-24.8,30.5-24.8l1.6-4.6c0,0-2.7-4.8-2.2-6.7
	c0.5-1.9-3.7,2.1-3.7,2.1l0.7,2.2c0,0-69.2,4-76.2-0.6l4.3-4l-3.5-1.9c0,0-1.6,5.6-3.7,7s3.7,7.5,3.7,7.5S242.2,186.9,250.2,188z"/>
<path class="st12" d="M250.2,187.2c0,0,16,3.2,24.6,0.5c8.6-2.7,30.5-24.8,30.5-24.8l1.6-4.6c0,0-2.7-4.8-2.1-6.7
	c0.5-1.9-3.7,2.1-3.7,2.1l0.7,2.2c0,0-69.2,4-76.2-0.6l4.3-4l-3.5-1.9c0,0-1.6,5.6-3.7,7c-2.1,1.3,3.7,7.5,3.7,7.5
	S242.2,186.1,250.2,187.2z"/>
<path class="st10" d="M227.7,159.6c0,0,2.9-1.1,10.4,1.1c7.5,2.1,16.6,0,16.6,0s40.4-0.8,43.6-0.3s8.5-2.1,8.5-2.1"/>
<path class="st10" d="M284.1,190.1c0,0,4.5,31,12.1,40.1C296.1,230.2,286.5,197.9,284.1,190.1z"/>
<circle class="st14" cx="268.8" cy="115.9" r="16.6"/>
<path class="st10" d="M263.8,96.6c-1.1,0.1-2.3,0.6-2.7,1.7c-0.3,0.7-0.2,1.5-0.3,2.2c-0.5,2.2-3.1,3.3-4.1,5.3
	c-1.1,2-0.4,4.3-0.6,6.4c-0.4,6.3-7.3,11-6.9,17.3c0.1,1.1,0.4,2.3,0.1,3.3c-0.5,2.1-2.9,3-4.9,4c-5.7,2.9-9.7,8.4-10.6,14.8
	c-0.2,1.5-0.2,3.2,0.5,4.5c0.7,1.4,2.3,2.4,3.8,2.1c2.2-0.5,3-3.5,5-4.6c0.9,1.4,0.6,3.2,1,4.8c0.5,1.7,2.3,3,4,2.6
	c1.7-0.4,2.5-3,1-4c1.9,0.2,3.1,2.1,3.5,4c0.4,1.8,0.2,3.8,0.7,5.6c1.1,4,4.9,6.8,9,6.5c0.6-0.1,1.2-0.1,1.8,0
	c0.6,0.2,1.1,0.5,1.5,0.9c2.1,1.5,4.7,2.2,7.3,1.9c0.1-1,1.1-1.7,2.1-1.8c1-0.1,2,0,2.9,0.3l4.5,1.1c1.3,0.3,3,0.5,3.7-0.6
	c0.5-0.8,0.2-2,0.6-2.9c0.6-1.5,2.7-1.7,4.3-1.6c1.6,0.1,3.6,0.3,4.6-1c1-1.3,0.3-3.3-0.6-4.8c-0.9-1.4-2.1-3-1.8-4.7
	c0.5-2.4,3.4-3.3,4.9-5.2c1.5-2,1-5-0.2-7.2c-1.2-2.3-2.9-4.2-4-6.5c-0.3-0.5-0.3-1-0.1-1.5c0.2-0.3,0.6-0.5,0.9-0.7
	c0.8-0.7,0.7-2,0.5-3c-0.7-3.3-2-6.6-3.7-9.5c-0.8-1.4-1.8-2.8-2.2-4.3c-0.5-1.8-0.2-3.8-0.6-5.6c-0.4-2-1.7-3.7-2.9-5.3L276.2,98
	c-0.4-0.6-0.9-1.2-1.5-1.7c-1.8-1.2-3.9-0.5-5.7,0.3C266.9,97.5,265.9,96.5,263.8,96.6z"/>
<path class="st15" d="M263.8,95.8c-1.1,0.1-2.3,0.6-2.7,1.7c-0.3,0.7-0.2,1.5-0.3,2.2c-0.5,2.2-3.1,3.3-4.1,5.3
	c-1.1,2-0.4,4.3-0.6,6.4c-0.4,6.3-7.3,11-6.9,17.3c0.1,1.1,0.4,2.3,0.1,3.3c-0.5,2.1-2.9,3-4.9,4c-5.7,2.9-9.7,8.4-10.6,14.8
	c-0.2,1.5-0.2,3.2,0.5,4.5c0.7,1.4,2.3,2.4,3.8,2.1c2.2-0.5,3-3.5,5-4.6c0.9,1.4,0.6,3.2,1,4.8c0.5,1.7,2.3,3,4,2.6
	c1.7-0.4,2.5-3,1-4c1.9,0.2,3.1,2.1,3.5,4c0.4,1.8,0.2,3.8,0.7,5.6c1.1,4,4.9,6.8,9,6.5c0.6-0.1,1.2-0.1,1.8,0
	c0.6,0.2,1.1,0.5,1.5,0.9c2.1,1.5,4.7,2.2,7.3,1.9c0.1-1,1.1-1.7,2.1-1.8c1-0.1,2,0,2.9,0.3l4.5,1.1c1.3,0.3,3,0.5,3.7-0.6
	c0.5-0.8,0.2-2,0.6-2.9c0.6-1.5,2.7-1.7,4.3-1.6c1.6,0.1,3.6,0.3,4.6-1c1-1.3,0.3-3.3-0.6-4.8c-0.9-1.4-2.1-3-1.8-4.7
	c0.5-2.4,3.4-3.3,4.9-5.2c1.5-2,1-5-0.2-7.2c-1.2-2.3-2.9-4.2-4-6.5c-0.3-0.5-0.3-1-0.1-1.5c0.2-0.3,0.6-0.5,0.9-0.7
	c0.8-0.7,0.7-2,0.5-3c-0.7-3.3-2-6.5-3.7-9.5c-0.8-1.4-1.8-2.8-2.2-4.3c-0.5-1.8-0.2-3.8-0.6-5.6c-0.4-2-1.7-3.7-2.9-5.3l-9.5-12.9
	c-0.4-0.6-0.9-1.2-1.5-1.7c-1.8-1.2-3.9-0.5-5.7,0.3C266.9,96.7,265.9,95.7,263.8,95.8z"/>
<path class="st10" d="M255.1,134.9c0,0-7.2,1.1-9.9,7.5c-2.7,6.4-6.1,7.8-6.1,7.8"/>
<path class="st10" d="M264.5,103.6c0,0,4,9.1,0.3,15.2c-3.8,6.2-1.6,17.4-1.6,17.4"/>
<path class="st10" d="M261.5,147.2c0,0-4-1.6-2.4,5.1c1.6,6.7-0.5,11.5-0.5,11.5"/>
<path class="st10" d="M273.3,146.1c0,0-7.2-0.3-4.7,9.1c2.5,9.4-0.7,13.9-0.7,13.9"/>
<path class="st10" d="M273.3,101.7c0,0,7,7.2,6.4,11.8s-0.3,20.6,0,21.4"/>
<path class="st10" d="M282.4,146.9c0,0,4.8,5.1,4,9.4c-0.8,4.3,0,12.8,0,12.8"/>
<path class="st10" d="M287.5,124.2c0,0,3.5,6.4,2.7,12.1"/>
<path class="st16" d="M240.3,199c0,0,11.1,22.2,39.4,2.2"/>
<path class="st17" d="M287.5,231.4"/>
<polyline class="st9" points="287.2,231.4 296.3,217.5 297.4,222.3 287.3,232.5 "/>
<path class="st10" d="M264.5,257.1c0,0,8.5,20.6,0,38.2"/>
<rect x="343.2" y="290.8" class="st2" width="28.6" height="8"/>
</svg>
