<?xml version="1.0" encoding="utf-8"?>
<!-- Generator: Adobe Illustrator 22.1.0, SVG Export Plug-In . SVG Version: 6.00 Build 0)  -->
<svg version="1.1" id="_x32_71e5882-3c8d-41ed-8a0a-1cb2b4d0cbc1"
	 xmlns="http://www.w3.org/2000/svg" xmlns:xlink="http://www.w3.org/1999/xlink" x="0px" y="0px" viewBox="0 0 550 415.6"
	 style="enable-background:new 0 0 550 415.6;" xml:space="preserve">
<style type="text/css">
	.st0{fill:#FFFCEF;}
	.st1{opacity:0.1;fill:#6C63FF;enable-background:new    ;}
	.st2{fill:url(#SVGID_1_);}
	.st3{fill:#D38884;}
	.st4{fill:#444053;}
	.st5{fill:#B07473;}
	.st6{opacity:0.1;enable-background:new    ;}
	.st7{fill:#FFD578;}
	.st8{fill:#67647E;}
	.st9{fill:#585268;}
	.st10{fill:#E1E7EF;}
	.st11{fill:url(#SVGID_2_);}
	.st12{fill:#A27772;}
	.st13{fill:#CC818C;}
	.st14{opacity:0.1;}
	.st15{fill:#F6F8FB;}
	.st16{fill:url(#SVGID_3_);}
	.st17{fill:#65617D;}
	.st18{fill:#FBBEBE;}
	.st19{opacity:5.000000e-02;enable-background:new    ;}
	.st20{fill:#7C5C5C;}
	.st21{fill:url(#SVGID_4_);}
	.st22{fill:#FDC2CC;}
	.st23{fill:#D39999;}
	.st24{fill:#7E5659;}
	.st25{fill:#865A61;}
	.st26{opacity:5.000000e-02;}
	.st27{fill:#A8A8A8;}
	.st28{opacity:0.2;enable-background:new    ;}
</style>
<title>team spirit</title>
<path class="st0" d="M27.4,213.3c8,31.1,25,58,51.8,71c55.7,27.1,181.3,13.1,275-2.9c48.5-8.3,91.1-31.2,122-63.4L27.4,213.3z"/>
<path class="st0" d="M518.9,66.8h-51.4c-2.4,0-4.4-1.8-4.4-4c0-2.2,2-4,4.4-4h8.9c-2.4,0-4.4-1.8-4.4-4c0-2.2,2-4,4.4-4H470
	c-2.4,0-4.4-1.8-4.4-4c0-2.2,2-4,4.4-4h26.8c-6-2.5-12.9-4.3-20.9-5.2c-73.2-8.5-99.3-2.9-108.5,2.9c-11.5,7.3-24.2,12.4-37.6,15
	c-45.2,8.5-129.6,18.7-206.1-3.3c-38-10.9-66.3,7.5-83.3,38.3h487.5c-0.6-8.9-2.5-17.2-6-24.4C520.9,66.5,519.9,66.8,518.9,66.8z"/>
<path class="st0" d="M23,148.4c-2,18.1-1.3,36.4,2,54.3l451.5,15c12.4-13,23-27.6,31.4-43.5L23,148.4z M201.6,187.1h-8.9
	c2.4,0,4.4,1.8,4.4,4s-2,4-4.4,4h-51.4c-2.4,0-4.4-1.8-4.4-4s2-4,4.4-4h8.9c-2.4,0-4.4-1.8-4.4-4s2-4,4.4-4h-6.4
	c-2.4,0-4.4-1.8-4.4-4s2-4,4.4-4h51.4c2.4,0,4.4,1.8,4.4,4s-2,4-4.4,4h6.3c2.4,0,4.4,1.8,4.4,4S204.1,187.1,201.6,187.1z"/>
<path class="st0" d="M527.8,90.6L34.9,101.5c-6,14-10,29.8-11.8,46.3h496.1c3.2-9.6,5.6-19.5,7.2-29.5
	C527.8,108.6,528.4,99.3,527.8,90.6z M123.2,126.3h-8.9c2.4,0,4.4,1.8,4.4,4s-2,4-4.4,4H62.9c-2.4,0-4.4-1.8-4.4-4s2-4,4.4-4h8.9
	c-2.4,0-4.4-1.8-4.4-4c0-2.2,2-4,4.4-4h-6.4c-2.4,0-4.4-1.8-4.4-4c0-2.2,2-4,4.4-4h51.4c2.4,0,4.4,1.8,4.4,4c0,2.2-2,4-4.4,4h6.4
	c2.4,0,4.4,1.8,4.4,4C127.6,124.5,125.6,126.3,123.2,126.3z"/>
<ellipse class="st1" cx="317.5" cy="365.6" rx="33.5" ry="7.5"/>
<ellipse class="st1" cx="395.3" cy="389.4" rx="60.4" ry="4.9"/>
<ellipse class="st1" cx="152.8" cy="381.9" rx="60.4" ry="7.5"/>
<ellipse class="st1" cx="244.9" cy="344.4" rx="45.4" ry="7.5"/>
<linearGradient id="SVGID_1_" gradientUnits="userSpaceOnUse" x1="267.3652" y1="47.7293" x2="267.3652" y2="309.916" gradientTransform="matrix(1 0 0 -1 -31.16 395.7682)">
	<stop  offset="0" style="stop-color:#808080;stop-opacity:0.25"/>
	<stop  offset="0.54" style="stop-color:#808080;stop-opacity:0.12"/>
	<stop  offset="1" style="stop-color:#808080;stop-opacity:0.1"/>
</linearGradient>
<path class="st2" d="M278.8,166.2c-1-6.4-6.8-21.5-6.8-21.5l0,0c-0.1-0.4-0.2-0.9-0.3-1.3c-4.2-14.3-9.9-15.5-9.9-15.5l-20.7-4.4
	c0.2,0.1,0.3,0.2,0.4,0.4c-0.1,0-0.2,0-0.3,0c-0.9-1.1-1.6-2.5-1.8-3.9c0-0.2-0.1-0.4-0.1-0.7c5.7-5.6,5.9-14.8,0.3-20.5
	c-0.5-0.5-0.9-0.9-1.4-1.3c-0.2-0.2-0.4-0.3-0.7-0.5c1-1,1-2.5,0.3-3.9c-1.6-3.4-5.2-5.5-8.8-6.5c-2.8-0.8-5.8-1.1-8.6-0.2
	c-1.6,0.5-3,1.3-4.5,2.1c-2.7,1.4-5.8,2.4-7.8,4.7c-0.5,0.5-0.9,1.2-0.8,1.9c0.1,0.5,0.5,0.9,0.8,1.4c0.6,1,0.4,2.3,0,3.4
	s-1,2.2-1.3,3.3c-0.3,1.1-0.2,2.5,0.7,3.3c0.4,0.3,0.8,0.6,1.3,0.9c0.5,0.4,0.9,0.9,1.2,1.4c0.8,1.1,1.6,2.2,2.4,3.3
	c1.1,1.5,2.2,3,3.1,4.6c0.6,1.2,1.1,2.5,1.9,3.5c0.2,0.3,0.5,0.6,0.8,0.9L218,121c0.7,0.7,1.7,1.1,2.7,1.1l0,0c0,0,0.1,0,0.1,0
	c0.2,0,0.4-0.1,0.5-0.2c0,0.2,0,0.3,0,0.4c0,1.6,0,3.3-0.1,4.9l-0.2-0.1c-0.6-0.3-1.3-0.2-1.8,0.2l-19,15.2c0,0-4.1,5.6-3.6,15.4
	l-3.3,14.6c0,0-4.2,12.4-1,21.2c3.2,8.8,5.1,13.9,5.1,13.9s1.3,10.1,3.2,10.9c1.9,0.8,2.8,1.3,2.8,1.3l0.4,2.4l0,0
	c0,0,0.1,0.2,0.4,0.6c1.4,2.4,6.6,11,9.6,10.1c0.4,2.3,0.5,4.7,0.5,7l3,20c0,0,2.1,5.4,2,8.3c-0.1,2.8,2.4,6.9,2.4,6.9
	c-1.6,2.8-2,6.1-1.3,9.3c1.2,5.3,2.8,29.8,2.8,29.8l2.2,5.9l-0.1,7c-0.2,1.1-0.7,2.2-1.4,3.1c-1.4,1.6-1.3,3.4-4.8,5.5
	c-3.5,2.1-5.7,2.9-5.7,5.8c0,0.4,0,0.8-0.1,1.2c-0.3,2.1-0.9,3.2,5.4,3.8c7.5,0.7,12.5-4.2,12.5-4.2s1.1-2,6.3-2.8
	c0,0,1.8-0.1,1.9-1.7c0-0.5,0-1.6,0-2.7c-0.1-2.2-0.3-4.7-0.6-4.8c-0.3-0.2-1-2.3-1.2-3.1h1.4c0,0,1.3-10.1,0-16.6
	s-0.1-11.1-0.1-11.1l-0.3-17.2c0,0-1.8-1.9-0.4-5.3s0-19.9,0-19.9s0.5-5.9,2-7.3c1.5-1.4,0.1-8.7,0-9.1l2.6,8.8
	c0,0,1.2,17.4,3.6,20.6l0.7,7.9c0,0,5,7.3,4,11.2c-1,3.9,1,18.1,1,18.1v14.5c0,0-2.2,5.8,0.9,7.9l1.3-0.1c-0.4,0.4-0.8,1-1.3,1.6
	c-0.6,0.6-0.9,3-1.1,5c-0.2,1.7-0.2,3.2-0.2,3.2s1.3,2.1,3.8,2.3c2.5,0.1,10.8,6.4,10.8,6.4s8.2,0,10.3-0.4l0.1,0
	c0.7-0.2,1.3-0.7,1.6-1.3c0.4-0.7,0.6-1.6,0.4-2.4c-0.3-1.2-1.3-2.6-3.5-3.8c-5.5-2.9-6.3-5.6-6.3-5.6l-3.6-5.4h0.5
	c0,0-0.3-5.7,3.6-12.1l-0.3-28.1c0,0,1.6-9.7-1.2-14.9c0,0-0.2-5.6,1.6-7.3c1.8-1.7-2.5-19-2.5-19s-0.9-9.3-1.9-17.7l0,0
	c4.3,4.1,8.8-10.6,9.6-13.3h0.1l0-0.2c0-0.1,0-0.2,0-0.2l0,0c0,0-1-3.4-0.3-2.7c0.7,0.7,2.4-1.9,2.4-1.9s-0.3-14.1,2.8-21.2
	C283.2,183.5,278.8,166.2,278.8,166.2z M265.9,175.2L265.9,175.2c0.5,8.6-0.1,26.9-0.1,26.9s-0.6,2.4-1.2,5.1l-0.4-17.5l0,0
	l-0.4-16.4L265.9,175.2z M210.7,169.2c0,0,2.2,27.2,0,31.1c-0.6,1.1-1.1,3.1-1.6,5.4c-0.7-1.9-2.2-6.3-1.7-8.7
	c0.7-3-1.4-11-1.4-11.2s-0.2-4.4,1.3-7.7c1.5-3.2,0.5-4.7,0.5-4.7S209.2,168.2,210.7,169.2z"/>
<path class="st3" d="M216,230.5c-1.9,8.3-9.5-4.3-11.2-7.3c-0.2-0.4-0.3-0.6-0.3-0.6l0.8-3.8l4.3-1.8c0.7,0.4,1.3,0.8,1.9,1.3
	C214,220.1,217.5,224,216,230.5z"/>
<path class="st3" d="M274.6,216.8c0,0,0,0.1,0,0.2c0,0.1,0,0.1-0.1,0.2c-0.7,2.6-5.1,17.2-9.4,13.2c-4.7-4.4-2.4-14.7-2.4-14.7h0
	l9.8-1l1.9,2l0,0L274.6,216.8z"/>
<path class="st4" d="M269,288.8l0.2,27.9c-3.8,6.3-3.5,12-3.5,12l-12.7,0.5c-3.1-2.1-0.9-7.8-0.9-7.8V307c0,0-2-14.1-1-17.9
	c0.9-3.9-4-11.1-4-11.1l-0.7-7.8c-2.4-3.1-3.5-20.5-3.5-20.5l-2.6-8.7c0.1,0.4,1.4,7.7,0,9c-1.4,1.3-2,7.3-2,7.3s1.4,16.4,0,19.8
	c-1.4,3.3,0.4,5.2,0.4,5.2l0.3,17.1c0,0-1.2,4.6,0.1,11c1.3,6.5,0,16.4,0,16.4h-13.6l0.1-7l-2.2-5.9c0,0-1.5-24.3-2.7-29.6
	c-0.7-3.1-0.3-6.4,1.3-9.2c0,0-2.5-4-2.4-6.8c0.1-2.8-1.9-8.2-1.9-8.2l-2.9-19.8c0.1-3.8-0.4-7.6-1.5-11.3
	c-1.7-5.7-4.2-13.1-4.2-13.1l2.8,0.3l14.3,1.3c0,0,34.9-2.3,36.4-0.4c0.3,0.6,0.6,1.3,0.7,2c1.6,7,3.6,29,3.6,29s4.2,17.1,2.4,18.8
	c-1.8,1.7-1.6,7.2-1.6,7.2C270.6,279.2,269,288.8,269,288.8z"/>
<path class="st5" d="M239.5,337.4c-0.1,1.6-1.8,1.6-1.8,1.6c-5.1,0.8-6.2,2.8-6.2,2.8s-4.9,4.8-12.3,4.1c-6.3-0.6-5.7-1.7-5.3-3.8
	c0.1-0.4,0.1-0.8,0.1-1.2c0-2.8,2.2-3.6,5.6-5.8s3.3-3.9,4.7-5.5c1.4-1.6,1.6-4.6,1.6-4.6c1.6-2.8,5.7,0.4,5.7,0.4
	c0.2,1,6.2,0.8,6.2,0.8s0.8,3.2,1.2,3.4c0.3,0.1,0.5,2.6,0.6,4.8C239.5,335.8,239.5,336.8,239.5,337.4z"/>
<path class="st6" d="M239.5,337.4c-0.1,1.6-1.8,1.6-1.8,1.6c-5.1,0.8-6.2,2.8-6.2,2.8s-4.9,4.8-12.3,4.1c-6.3-0.6-5.7-1.7-5.3-3.8
	c2.8,0.7,8.2,1.7,11.3,0c4.3-2.4,7.5-4,7.5-4l6.9-3.4C239.5,335.8,239.5,336.8,239.5,337.4z"/>
<path class="st5" d="M277.9,345.8c-0.3,0.6-0.9,1.1-1.6,1.3l-0.1,0c-2.1,0.4-10.1,0.4-10.1,0.4s-8.1-6.3-10.6-6.4s-3.8-2.3-3.8-2.3
	s0-1.5,0.2-3.1c0.2-2,0.5-4.3,1.1-4.9c1.1-1.1,1.3-2.7,3.8-1.7c0,0,3.5-6.1,7.6-1.4l4.3,6.4c0,0,0.8,2.7,6.2,5.5
	c2.2,1.2,3.1,2.5,3.4,3.7C278.5,344.2,278.3,345.1,277.9,345.8z"/>
<path class="st6" d="M277.9,345.8c-0.5,0.4-1,0.8-1.6,1.3l-0.1,0c-2.1,0.4-10.1,0.4-10.1,0.4s-8.1-6.3-10.6-6.4s-3.8-2.3-3.8-2.3
	s0-1.5,0.2-3.1c2.5,0.7,6.3,2.1,7.3,3.5c1.6,2.2,6.3,5.2,6.3,5.2s8.8-0.8,12.7-1C278.5,344.2,278.3,345.1,277.9,345.8z"/>
<path class="st3" d="M243.6,126.8L232,139c0,0-14.1-1-11.6-5.2c1.3-2.1,1.4-6.5,1.3-10.4c-0.1-3.7-0.5-6.9-0.5-6.9
	s19.7-9.8,18.2-0.7c-0.3,1.7-0.3,3.5-0.1,5.2C240.3,125.8,243.6,126.8,243.6,126.8z"/>
<path class="st6" d="M239.4,115.9c-0.3,1.7-0.3,3.5-0.1,5.2c-2.7,2.8-6.4,4.3-10.3,4.3c-2.7,0-5.6-2.2-7.7-3.5
	c-0.1-3.7-0.1-5.4-0.1-5.4S241,106.8,239.4,115.9z"/>
<path class="st3" d="M243.6,110.2c0,8-6.5,14.5-14.5,14.5c-8,0-14.5-6.5-14.5-14.5c0-8,6.5-14.5,14.5-14.5c3.3,0,6.5,1.1,9.1,3.2
	C241.6,101.6,243.6,105.8,243.6,110.2z"/>
<path class="st6" d="M263.4,219c-3.6,8.6-26.9,8.8-26.9,8.8v-9.4l-1.4-0.1c0.6,2.7-0.9,9.2-0.9,9.2c-18.4,2.6-22.9-7.9-22.9-7.9
	l0.6-3.6l14.3,1.3c0,0,34.9-2.3,36.4-0.4C263.1,217.6,263.3,218.3,263.4,219z"/>
<path class="st7" d="M236.5,226.6v-9.4l-1.4-0.1c0.6,2.7-0.9,9.2-0.9,9.2c-13.9,1.9-19.8-3.5-21.9-6.3c-0.4-0.5-0.7-1-1-1.6
	l5.6-31.5l1.3-46.4l2-8.1l0.5-3.9v0h0l1.4,0.6l8.6,3.7l9.7-7.3l0.1-0.1l0.5-0.4l0.8,0.6l2,1.6l6.4,41.3c0,0,11.1,31.8,13.2,44.7
	c0.1,0.5,0.2,1,0.2,1.4C265.2,226.4,236.5,226.6,236.5,226.6z"/>
<ellipse class="st8" cx="231.8" cy="133.7" rx="0.8" ry="0.8"/>
<ellipse class="st8" cx="232.2" cy="141.2" rx="0.8" ry="0.8"/>
<ellipse class="st8" cx="233.1" cy="153.4" rx="0.8" ry="0.8"/>
<ellipse class="st8" cx="234.4" cy="166.6" rx="0.8" ry="0.8"/>
<ellipse class="st8" cx="235.2" cy="178.9" rx="0.8" ry="0.8"/>
<ellipse class="st8" cx="236.1" cy="192" rx="0.8" ry="0.8"/>
<ellipse class="st8" cx="235.7" cy="205" rx="0.8" ry="0.8"/>
<path class="st6" d="M221.3,191.6c0,0-0.9,12.1-2.6,15.6s-2.5,13.4-2.5,13.4l-3.9-0.4c-0.4-0.5-0.7-1-1-1.6l5.6-31.5l1.3-46.4l2-8.1
	l0.5-3.9l0.1,0c0.4-0.2,1-0.2,1.4,0l0.2,0.1c-0.1,0.2-0.1,0.3-0.2,0.5c-1.5,4.8-2.1,13.7-2.1,13.7s2.2,16.2,2.5,23.7
	S221.3,191.6,221.3,191.6z"/>
<path class="st6" d="M211.6,218.2c0,0.1-0.1,0.2-0.2,0.3c-1.5,2.6-5.4,4.2-6.6,4.7c-0.2-0.4-0.3-0.6-0.3-0.6l0.8-3.8l4.3-1.8
	C210.3,217.3,211,217.7,211.6,218.2z"/>
<path class="st8" d="M201.1,156.6l-3.6,2.1l-3.3,14.5c0,0-4.1,12.3-0.9,21.1c3.1,8.8,5,13.8,5,13.8s1.3,10,3.1,10.8
	c1.9,0.8,2.7,1.3,2.7,1.3l0.4,2.4c0,0,5.1-1.7,6.9-4.8c1.8-3.1-1.3-10.6-1.3-10.6s-2.7-6.5-2-9.5c0.7-3-1.4-10.9-1.4-11.1
	s-0.2-4.4,1.3-7.6s0.5-4.6,0.5-4.6l-0.9-9.2L201.1,156.6z"/>
<path class="st6" d="M263.7,216.3c0,0-9.5,3.6-12.5,0.4c-3-3.1-2.7-17.8-2.7-17.8s-2.9-27.1-4.7-31.6s-0.9-36.6-0.9-36.6
	s-1.2-4.2-2.3-5.2c-0.1-0.1-0.1-0.1-0.2-0.2l0.4,0.1l1.3,0.3l2,1.6l6.4,41.3c0,0,11.1,31.8,13.2,44.7L263.7,216.3z"/>
<path class="st6" d="M274.6,217.2h-0.1c-1.2,0.2-11.8,1.4-11.8-0.8c0-0.3,0-0.5,0-0.8l9.8-1l1.9,2l0,0c0,0.1,0.1,0.2,0.1,0.3
	L274.6,217.2z"/>
<path class="st8" d="M264.5,142.1l6.9,3.6c0,0,5.8,14.9,6.7,21.3c0,0,4.3,17.1,1.3,24.2s-2.7,21-2.7,21s-1.7,2.6-2.4,1.9
	c-0.7-0.7,0.3,2.7,0.3,2.7s-11.9,1.6-11.9-0.8c0-2.3,2.7-13.4,2.7-13.4s0.8-26.4-0.3-30.6C264.1,168,264.5,142.1,264.5,142.1z"/>
<path class="st6" d="M243.8,170.2c0,0-3.9,9.5-5.2,10.2c-1.3,0.6,0.3,3.1,0.3,3.1S246,173.6,243.8,170.2z"/>
<path class="st6" d="M241.5,136.8c0-0.2-4.7,4.6-5.9,5.3C234.3,142.8,240.1,142,241.5,136.8z"/>
<path class="st6" d="M228.4,169.5c0,0-7.2,4.6-6.2,6.5C223.1,177.7,228.4,169.5,228.4,169.5z"/>
<path class="st6" d="M241.4,237c0,0,6.1,3.9,15.6,4.9L241.4,237z"/>
<path class="st6" d="M226.7,246.4c0,0,5.7,7.1,8.2,7.3S226.7,246.4,226.7,246.4z"/>
<path class="st6" d="M234.7,274.2c-0.3,0.1-3.2,6.4-6.2,6.6C225.4,281,234.7,274.2,234.7,274.2z"/>
<path class="st6" d="M260.9,288c0,0,5.6-1.3,6.9,2.8C267.8,290.7,267.4,289.5,260.9,288z"/>
<path class="st6" d="M257.1,310.9c0,0,6.8-1.4,8.2,0.5C266.8,313.3,257.1,310.9,257.1,310.9z"/>
<path class="st6" d="M237.9,314.1c0,0.1-6.9,1.4-6.7,2.3c0.2,0.9,7.4,0.8,7.6-0.6C239.1,315.1,238.6,314.3,237.9,314.1
	C237.9,314.1,237.9,314.1,237.9,314.1z"/>
<path class="st6" d="M254.9,320.1c0,0,11.4-1.4,10.7,1C264.9,323.5,254.9,320.1,254.9,320.1z"/>
<path class="st6" d="M195.3,180.4c0.1,0.2,7.5,1.2,8.5,3.6c0,0-7.3-3.4-8.5-3.4"/>
<path class="st6" d="M205.8,199.8c0,0-6.2,1.9-5.7,4.9S199.4,203.3,205.8,199.8z"/>
<path class="st6" d="M202.9,214.7c0,0,2.2-3.1,4.4-2.5C209.4,212.8,202.9,214.7,202.9,214.7z"/>
<path class="st6" d="M238.1,98.9c-0.2,0.2-0.5,0.4-0.7,0.5c-1.8,1-2.3,2.6-3.1,4.5c-0.8,1.7-1.7,3.5-3.2,4.4
	c-2.1,1.2-4.8,0.8-6.9,1.9c-1.9,1-3.1,3.1-2.8,5.2c0.1,0.8,0.3,1.6,0.6,2.4c0.5,1.7,0.7,3.5,0.6,5.2c0,0.1,0,0.1,0,0.2
	c-7.2-3.6-10.1-12.3-6.5-19.4c3.6-7.2,12.3-10.1,19.5-6.5C236.5,97.7,237.4,98.2,238.1,98.9L238.1,98.9z"/>
<path class="st9" d="M237.8,94.5c-1.6-3.3-5.1-5.5-8.6-6.5c-2.7-0.8-5.7-1-8.4-0.2c-1.5,0.5-2.9,1.3-4.4,2.1
	c-2.7,1.4-5.7,2.4-7.7,4.7c-0.5,0.5-0.9,1.2-0.8,1.9c0.1,0.5,0.5,0.9,0.8,1.4c0.6,1,0.4,2.3,0,3.4c-0.4,1.1-1,2.1-1.3,3.3
	s-0.2,2.5,0.7,3.3c0.4,0.4,0.9,0.6,1.3,0.9c0.5,0.4,0.9,0.9,1.2,1.4l2.4,3.3c1.1,1.5,2.1,3,3,4.6c0.6,1.2,1.1,2.5,1.9,3.5
	s2,1.9,3.4,1.8c0.2,0,0.4-0.1,0.5-0.3c0-0.1,0.1-0.2,0.1-0.3c0.1-1.8-0.2-3.5-0.6-5.2c-0.3-0.8-0.5-1.6-0.6-2.4
	c-0.2-2.2,0.9-4.2,2.8-5.2c2.1-1.1,4.8-0.6,6.9-1.8c1.6-1,2.5-2.7,3.2-4.4c0.9-1.8,1.3-3.4,3.1-4.5C238.4,98,238.6,96.3,237.8,94.5z
	"/>
<path class="st6" d="M231.2,331.5c0,0,2.2,2.8,1.6,4.4S231.2,331.5,231.2,331.5z"/>
<path class="st6" d="M261.3,338.5c0,0,0.5-3.8,2.5-3.8s2.1-0.2,3.6,0.4c1.5,0.6,2.9,1.5,2.5,1.6c-0.5,0.1-2.6-2.2-4.8-1
	C263.7,336.5,262.4,337.4,261.3,338.5z"/>
<path class="st6" d="M224.6,137.6l6.2-4.4c0,0-9.1-5.4-10.2-4.6c-1.1,0.8-1.8,7.5-1.8,7.5L224.6,137.6z"/>
<path class="st10" d="M224.6,137.3l6.2-4.4c0,0-9.1-5.4-10.2-4.6c-1.1,0.8-1.8,7.9-1.8,7.9L224.6,137.3z"/>
<path class="st7" d="M224.6,137.3l6.2-4.4c0,0-9.1-5.4-10.2-4.6c-1.1,0.8-1.8,7.9-1.8,7.9L224.6,137.3z"/>
<path class="st8" d="M221.6,128.3l-0.2-0.1c-0.6-0.3-1.3-0.2-1.7,0.2L201,143.5c0,0-4.1,5.6-3.5,15.3l11,15.6c0,0,1.3-5.3,2.8-4.3
	c0,0,2.1,27,0,30.9c-2.1,3.9-3.1,18.5-3.1,18.5l7.2,0.8c0,0,0.8-9.9,2.5-13.4s2.6-15.6,2.6-15.6s1.5-17.5,1.3-25.1
	s-2.5-23.7-2.5-23.7S220,132.9,221.6,128.3z"/>
<path class="st6" d="M240.3,134.8l-7.8-2.9c0,0,9.9-10.8,11.1-4.8L240.3,134.8z"/>
<path class="st10" d="M240.3,134.4l-7.8-2.9c0,0,9.9-10.8,11.1-4.8L240.3,134.4z"/>
<path class="st7" d="M240.3,134.4l-7.8-2.9c0,0,9.9-10.8,11.1-4.8L240.3,134.4z"/>
<path class="st6" d="M240,125.2c0.1,0,0.2,0,0.3,0.1L240,125.2z"/>
<path class="st8" d="M240.7,124.5l20.6,4.4c0,0,5.7,1.3,9.8,15.4c4.1,14.2-5.6,31.6-5.6,31.6l-2.1-1.8l1.1,41.4
	c0,0-9.5,3.6-12.5,0.4c-3-3.1-2.7-17.8-2.7-17.8s-2.9-27.1-4.7-31.6c-1.8-4.5-0.9-36.6-0.9-36.6S241.9,124.2,240.7,124.5z"/>
<path class="st6" d="M259.6,150.9c-0.3,0.3-0.6,12.8,0.6,22.3c0.8,5.8,2,11.6,3.6,17.2l-1.9-38.2
	C261.9,152.2,260.5,150.1,259.6,150.9z"/>
<path class="st6" d="M257.1,140.1c0.5,0.3,2.7,5.5,1.7,7.7S257.1,140.1,257.1,140.1z"/>
<path class="st6" d="M237.6,94.5c-1-2-2.6-3.6-4.5-4.7c1.4,1,2.6,2.4,3.4,4c0.9,1.8,0.6,3.5-1.1,4.5c-1.7,1-2.3,2.6-3.1,4.5
	c-0.8,1.7-1.7,3.5-3.2,4.4c-2,1.2-4.7,0.8-6.9,1.8c-1.9,1-3.1,3.1-2.8,5.3c0.1,0.8,0.3,1.6,0.6,2.4c0.5,1.7,0.7,3.5,0.6,5.2
	c0,0.1,0,0.2-0.1,0.3c-0.1,0.2-0.3,0.3-0.5,0.3c-0.5,0-1.1-0.1-1.6-0.3c0.7,0.7,1.7,1.1,2.7,1c0.3,0,0.6-0.2,0.6-0.4
	c0,0,0-0.1,0-0.1c0.1-1.8-0.2-3.5-0.6-5.2c-0.3-0.8-0.5-1.6-0.6-2.4c-0.2-2.2,0.9-4.2,2.8-5.2c2.1-1.1,4.8-0.6,6.9-1.8
	c1.6-1,2.5-2.7,3.2-4.4c0.9-1.8,1.3-3.4,3.1-4.5C238.3,98,238.5,96.3,237.6,94.5z"/>
<linearGradient id="SVGID_2_" gradientUnits="userSpaceOnUse" x1="352.1797" y1="24.8992" x2="352.1797" y2="295.8098" gradientTransform="matrix(1 0 0 -1 -31.16 395.7682)">
	<stop  offset="0" style="stop-color:#808080;stop-opacity:0.25"/>
	<stop  offset="0.54" style="stop-color:#808080;stop-opacity:0.12"/>
	<stop  offset="1" style="stop-color:#808080;stop-opacity:0.1"/>
</linearGradient>
<path class="st11" d="M364.4,150.2c-6.1-0.1-11.5-4.4-14.6-9.7c-0.8-1.3-1.3-2.7-1.5-4.2c0-0.3,0.1-0.7,0.2-1c0.2-0.5,0.3-1,0.4-1.5
	c0-0.2,0-0.4,0-0.6c0,0,0,0,0,0c0.1-1.1-0.5-2.2-1.3-3s-1.8-1.3-2.7-2.1c-2.6-2.3-3.4-6-3.5-9.5v-0.2c0-1.5,0.2-3,0.1-4.5
	c0-0.9,0-1.7-0.1-2.6c-0.3-2.1-1.1-4.3-2.7-5.7c-4.4-3.5-11.8,0.1-16.3-3.2c-1.1-0.8-2-2-3.3-2.4c-1-0.2-2.1,0.1-3,0.4
	c-3.3,1.1-7.1,2.5-8.4,5.8c-0.7,1.8-0.5,4-1.2,5.8c-0.4,1.3-1.3,2.3-1.9,3.5c-0.5,0.9-0.8,1.9-0.7,2.9c-0.1,0.5,0,1.1,0.2,1.6
	c0.2,0.6,0.6,1.1,1.1,1.6c-0.2,0.4-0.4,0.7-0.6,1c-0.9,1-2.2,1.8-3.1,2.8c-1.6,1.9-1.6,4.5-0.8,6.7c0.8,2.2,2.3,4.3,3.3,6.4
	c0.4,0.9,0.8,2,0.3,2.9c-0.3,0.7-1,1.1-1.5,1.7c-0.7,0.8-1.2,1.9-1.3,3c-10,2.3-10,10.3-10,10.3l0,0l-5.4,13.6c0,0-0.9,2.3-1.9,5.3
	l-6.4-1.1l4.4,7.4c-0.8,3-1.4,5.8-1.2,7.2c0,0-2,9.3,1.5,10.9l7.8,3.5c0.3,0.2,0.7,0.4,1.1,0.5l0.3,0.1c0.2,0.1,0.5,0.1,0.7,0h0h0.1
	c0.2,0,0.3,0,0.4-0.1c0.2-0.1,0.3-0.2,0.4-0.4c0,0,0,0,0,0l2.3-0.7l2,2.3c0.9,0.6,1.8,1.2,2.6,1.7l-3.1,30.3c0,0-0.5,40.4-2,49.6
	c-0.6,3.4-0.6,5.7-0.3,7.3l-0.1,0.1c0.4,2.6,1.3,3.1,1.3,3.1v0c0,0,0,0,0.1,0c0.5-1.2,1-2.3,1.6-3.4c0,0.2,0,0.4,0,0.7
	c0,3.4-0.1,8.2-0.5,11.3c-0.6,5.3,1.5,22.9,1.5,22.9l0.7,16c0.1,2.7-0.5,5.4-1.8,7.8c-1.8,3.2-4.1,7.7-4.2,9.7c0,0.1,0,0.2,0,0.3
	l0,0l-3.8,4.6c0,0-1.5,2.3,1.9,3.2c1.8,0.5,4.9,0,7.4-0.6c2.3-0.5,3.9-2.5,3.9-4.8c0.6-2.2,1.7-4.2,3.1-6l0.6,3.7l4.2,1l0.5-10.1
	c0.2-0.6,0.3-1.2,0.3-1.8l0,0c0.8-7.2-1.9-6.5-1.9-6.5c0.1,0.1,0.1,0.2,0.1,0.2l-0.1-0.2l0,0c-1.7-3.4-0.9-8.9-0.9-8.9
	s2.2-16,3-20.2c0.5-3,0.3-12.7,0.1-18.2c0-0.2,0-0.4,0-0.7c6.5-0.1,14.5-0.3,20.1-0.8v0.7l-1,37.7c-0.1,2.4-0.6,4.8-1.5,7
	c0,0,0,0.1,0,0.1c-1.2,3.2-1.9,6.5-2.1,9.9l-0.5,12v0.3l0,0c-0.8,0.3-2.2,1.2-2.2,3.9c-0.1,3.9,6.9,2.6,6.9,2.6c7,0,7-7.2,7-7.2
	s0.2-6.6,0.6-11.1c0.3-4.4-1-3.5-1-3.5l-0.1,12.6c0,0,0,0.1,0,0.1v-11l0.1-1.6v0l0,0v-0.3l0.9-13c0,0,6.4-21.7,7.4-25.8
	c0.7-3,0.4-11.9,0.2-16.8c0-0.2,0-0.4,0-0.7c2-0.2,3.7-0.2,4.4-0.2h0.3c0,0-0.3-34.8-1.2-47.9c-0.8-13.1-2.2-25.1-5.5-28.7
	c-2-2.2-4.8-8.9-6.7-13.9c4,1.7,8.1,3,12.3,4c10.5,2.2,9.1-6.9,9.1-6.9l-1.1-17.2h0.1c0-4.5-0.4-9-1.2-13.4
	c-0.6-3.4-1.4-6.9-2.7-9.8c1.1-0.4,2.3-0.9,3.4-1.4c2.9-1.3,6.1-3,6.5-6.1h-0.1C364.3,150.6,364.3,150.4,364.4,150.2z M299.3,175
	L299.3,175c0,1.8,0,4.9-0.2,8.3l-3.3-4.4l3.3-5.4L299.3,175z M345.3,190.7l-5.6-1.8c1-1.5,2.1-3,3.4-4.2l0.5-0.4l-0.2,0l0.3-0.2
	l0.2,0l-0.3,0.2l0.3-0.1c0.3,1.4,1,2.7,1.9,3.8C347.9,190.2,345.3,190.7,345.3,190.7L345.3,190.7z"/>
<polygon class="st12" points="311.6,350.4 311,362.7 306.8,361.7 306,356.6 "/>
<polygon class="st6" points="311.6,350.4 311,362.7 306.8,361.7 306,356.6 "/>
<path class="st13" d="M326.8,364.3l6.3,1.3l4.7-4.1v-11.6l0.1-1.6v0l0,0v-0.3l0.9-12.9c0,0,6.3-21.5,7.3-25.6
	c0.7-2.9,0.4-11.8,0.2-16.6c-0.1-2-0.2-3.3-0.2-3.3l-13.9-3.4l-0.3,10.7l-1,37.5c-0.1,2.4-0.6,4.7-1.4,7l0,0.1
	c-1.2,3.1-1.9,6.5-2,9.8l-0.5,11.9v0.3L326.8,364.3z"/>
<path class="st6" d="M337.9,347.9v0.3l0,0V347.9L337.9,347.9z"/>
<path class="st6" d="M326.8,364.3l6.3,1.3l4.7-4.1v-1c0,0.4-0.3,0.8-0.7,1.1l-0.1,0c-2.2,1.1-4.6,1.6-7.1,1.4l-2.5-0.2
	c-0.2,0-0.4,0.1-0.7,0.2v0.3L326.8,364.3z"/>
<path class="st5" d="M337.1,361.9L337.1,361.9c0.5-0.3,0.7-0.7,0.7-1.2l0.1-12.5c0,0,1.4-1,1,3.4s-0.5,11-0.5,11s-0.1,7.2-6.9,7.2
	c0,0-6.9,1.3-6.8-2.6c0.1-3.9,2.8-4.1,2.8-4.1l2.5,0.2C332.4,363.6,334.9,363.1,337.1,361.9z"/>
<path class="st13" d="M293.9,361.7c0.2,2.8,8.5,1.2,8.5,1.2L308,352c0,0,4.7-3.6,2.3-6.7c-0.1-0.2-0.2-0.4-0.3-0.5c0,0,0,0,0,0l0,0
	c0-0.1-0.1-0.2-0.1-0.3l0,0c-1.7-3.3-0.9-8.8-0.9-8.8s2.2-15.9,2.9-20c0.5-3,0.3-12.6,0.1-18.1c-0.1-2.3-0.1-3.8-0.1-3.8l-13.8-3.7
	c0,0,0,1.7,0,4.1c0,3.4-0.1,8.2-0.5,11.3c-0.6,5.3,1.5,22.7,1.5,22.7l0.7,15.9c0.1,2.7-0.5,5.4-1.8,7.7c-1.7,3.2-4,7.6-4.2,9.6
	C293.9,361.5,293.9,361.6,293.9,361.7z"/>
<path class="st6" d="M293.9,361.7c0.2,2.8,8.5,1.2,8.5,1.2L308,352c0,0,4.7-3.6,2.3-6.7c-0.1-0.2-0.2-0.4-0.3-0.5
	c-0.1,1.6-1.9,5.8-1.9,5.8s-4.6,9.2-6.1,11.4c-1.5,2.1-7.9-0.4-8.1-0.5C293.9,361.5,293.9,361.6,293.9,361.7z"/>
<path class="st5" d="M309.9,344.4c0,0,2.7-0.6,1.9,6.5l0,0c0.1,1.6-0.8,3.2-2.2,4.1c-2,1.2-5,3.9-6.5,9l0,0c0,2.3-1.6,4.3-3.8,4.8
	c-2.5,0.6-5.6,1.1-7.3,0.6c-3.3-0.9-1.9-3.2-1.9-3.2l3.8-4.5c0,0,6.6,2.6,8.1,0.5s6.1-11.3,6.1-11.3S310.7,345,309.9,344.4z"/>
<path class="st6" d="M332.2,287.3l-0.3,10.7c3.7-0.4,6.4-0.9,6.8-1.6c1-1.5,4.6-2.2,7.6-2.4c-0.1-2-0.2-3.3-0.2-3.3L332.2,287.3z"/>
<path class="st6" d="M298.1,295.5c0.4-0.7,0.9-1.4,1.5-1.8c1.5-0.8,1.3,5.2,1.3,5.2s4.9,0,11.1,0c-0.1-2.3-0.1-3.8-0.1-3.8
	l-13.8-3.7C298.1,291.4,298.1,293.1,298.1,295.5z"/>
<path class="st4" d="M296.5,296.9c0,0,1.6-4.4,3.1-5.2s1.3,5.2,1.3,5.2s36,0.3,37.8-2.4s12.3-2.6,12.3-2.6s-0.3-34.5-1.1-47.6
	c-0.8-13-2.1-24.9-5.4-28.5c-2.1-2.3-5.1-9.8-7-14.8c-1-2.7-1.7-4.7-1.7-4.7l-34.3,2l-0.3,2.8l-3.6,36.3c0,0-0.5,40.1-2,49.2
	C294.1,295.6,296.5,296.9,296.5,296.9z"/>
<g class="st14">
	<path d="M335.9,294.5c1.8-2.8,12.3-2.6,12.3-2.6s-0.3-34.5-1.1-47.6c-0.8-13-2.1-24.9-5.4-28.5c-2.1-2.3-5.1-9.8-7-14.8
		c-0.8-2.3-1.5-4.1-1.6-4.6l2.7-0.2c0,0,0.7,2,1.7,4.7c1.9,5,4.9,12.5,7,14.8c3.3,3.6,4.6,15.5,5.4,28.5c0.8,13,1.1,47.6,1.1,47.6
		s-10.5-0.2-12.3,2.6c-1.5,2.4-28,2.5-35.7,2.5C312.8,296.9,334.5,296.6,335.9,294.5z"/>
	<path d="M296.9,291.7c0.7-0.4,1,0.7,1.2,1.9c-0.6,1.1-1.1,2.2-1.5,3.3c0,0-0.9-0.5-1.3-3.1C295.7,292.9,296.3,292,296.9,291.7z"/>
</g>
<path class="st9" d="M307.1,112.7c-2.4,3.2,0,7.8-2.5,11c-0.8,1-2.1,1.8-3,2.8c-1.6,1.9-1.6,4.5-0.8,6.7s2.2,4.2,3.2,6.4
	c0.4,0.9,0.8,2,0.3,2.9c-0.3,0.6-1,1.1-1.5,1.7c-1.6,1.8-1.7,4.4-0.8,6.5c0.9,2.1,2.6,4,4.2,5.8c0.7,0.7,1.5,1.5,2.6,1.5
	c0.6,0,1.1-0.2,1.6-0.5c7.8-4,11.1-13.4,7.5-21.4c-1.4-3.3-3.7-6.5-3.7-9.9c0-2.8,1.4-5.4,1.7-8.2c0.3-3.3-1.7-8.7-5.7-10.1
	C310.6,109.9,308.3,111,307.1,112.7z"/>
<path class="st6" d="M307.1,112.7c-2.4,3.2,0,7.8-2.5,11c-0.8,1-2.1,1.8-3,2.8c-1.6,1.9-1.6,4.5-0.8,6.7s2.2,4.2,3.2,6.4
	c0.4,0.9,0.8,2,0.3,2.9c-0.3,0.6-1,1.1-1.5,1.7c-1.6,1.8-1.7,4.4-0.8,6.5c0.9,2.1,2.6,4,4.2,5.8c0.7,0.7,1.5,1.5,2.6,1.5
	c0.6,0,1.1-0.2,1.6-0.5c7.8-4,11.1-13.4,7.5-21.4c-1.4-3.3-3.7-6.5-3.7-9.9c0-2.8,1.4-5.4,1.7-8.2c0.3-3.3-1.7-8.7-5.7-10.1
	C310.6,109.9,308.3,111,307.1,112.7z"/>
<path class="st6" d="M333.5,230.1c-4.8,0.2-9.2,2.3-13.4,4.6c-4.2,2.3-8.2,4.9-12.7,6.6"/>
<path class="st6" d="M330.5,241.3c-4.7,0.4-9.1,2.6-12.3,6c-1.2,1.2-2.2,2.6-3.4,3.8c-1.8,1.8-4.1,3.1-6.6,3.7"/>
<path class="st6" d="M331.5,249.8c-3.8,1-7.2,3.1-9.9,6c-0.7,0.8-1.4,1.6-2.1,2.4c-3.9,4.2-9.5,6.4-14.9,8.6"/>
<path class="st13" d="M331.1,131.9c0.1,3.8,0.4,7.6,1,11.3c0.4,2.7,1.1,5.1,2,6.1c2.6,3.1-12.7,7.3-12.7,7.3l-9.1-7
	c0,0,7.2-6.6,3.8-13C312.7,130.1,331.1,131.9,331.1,131.9z"/>
<path class="st6" d="M301.2,201h36.3c-1-2.7-1.7-4.7-1.7-4.7l-34.3,2L301.2,201z"/>
<path class="st7" d="M298.8,200.3h38.8c-1.1-3.9,0-7.5,1.6-10.3c1.1-1.9,2.5-3.7,4.1-5.3l0.3-0.2l13.5-3l0.7-0.2
	c0,0,0.1-24.5-8.6-27.9s-13.9-7.9-13.9-7.9l-12,3.7l-8.8-4.4c-2.8,3-10.4,1.8-10.4,1.8c-12.3,1.4-12.3,10.6-12.3,10.6
	s7.2,16.7,7.7,16.7C300,174,298.8,200.3,298.8,200.3z"/>
<path class="st6" d="M312.2,184.7c0,0-7.9-1.7-10.6-4.8"/>
<path class="st6" d="M352.1,175.5l-9.2,7.5c0.1,0.6,0.2,1.2,0.3,1.8l0.3-0.2l13.5-3L352.1,175.5z"/>
<path class="st6" d="M327.3,197.7c0,0,2,1.1,5.1,2.6h5.3c-1.1-3.9,0-7.5,1.6-10.3l-9.3-3C333,190,327.3,197.7,327.3,197.7z"/>
<path class="st7" d="M297.2,154.4l-5.4,2.9l-5.3,13.5c0,0-5.6,14.8-5,18.7c0,0-2,9.2,1.5,10.9l9.1,4.1c0.4,0.2,0.9,0,1.1-0.4
	c0.1-0.2,0.1-0.5,0-0.7c-1.3-2.4-2.7-6.3-0.4-8.4l-2.6-5.4l9.5-15.4l3.2-5.3L297.2,154.4z"/>
<path class="st6" d="M309.3,181.6c0.5,1.9,2.1,4.9,7.3,6l5.8,4.7l6.2,2.8l2.5,1.1l1.1-7.7l-2.4-1.3l-2.8-1.5c0,0-6.4-11.5-16.4-6.7
	C309.5,179.5,309,180.6,309.3,181.6z"/>
<path class="st13" d="M309.6,181c0.5,1.9,2.1,4.9,7.3,6l5.8,4.7l6.2,2.8l2.5,1.1l1.1-7.7l-2.4-1.3l-2.8-1.5c0,0-6.4-11.5-16.4-6.6
	C309.9,178.9,309.4,179.9,309.6,181z"/>
<ellipse class="st6" cx="321" cy="127.8" rx="14.1" ry="14"/>
<ellipse class="st13" cx="321" cy="127.5" rx="14.1" ry="14"/>
<path class="st6" d="M329.7,157.4l-4.2-8.2c0,0,6.2-2.5,6.6-5.4c0.4-2.9,5.9,3.4,4.7,5.5C335.6,151.4,329.7,157.4,329.7,157.4z"/>
<path class="st7" d="M329.7,156.8l-4.2-8.2c0,0,6.2-2.5,6.6-5.4c0.4-2.9,5.9,3.4,4.7,5.5C335.6,150.7,329.7,156.8,329.7,156.8z"/>
<path class="st15" d="M295.1,177.9l23.4,31.3c0,0-8.6,4.7-20.5-3.7l-5.1-6.1l-14.6-24.6L295.1,177.9z"/>
<path class="st13" d="M290.5,194.9l2.1-0.1c0,0,13-12.6,16.2-6.2c3.2,6.4-8.1,12.3-8.1,12.3l-3.4,1.8l-4.5,1.3l-2.9-3.8L290.5,194.9
	z"/>
<path class="st6" d="M293.6,201.7c0.2,0.7,0.4,1.5,0.1,2.2c-0.1,0.2-0.2,0.3-0.4,0.4c-0.1,0.1-0.3,0.1-0.4,0.1
	c-1.1-0.1-2.2-0.6-2.9-1.4c-0.7-0.8-1.4-1.8-1.9-2.7c-0.6-1-1.2-2.1-1-3.3c0.2-1.2,1.3-2.1,2.4-2.8c2.2-1.4,2.2,0.2,2.7,2.1
	S293.1,199.9,293.6,201.7z"/>
<path class="st7" d="M293.3,201.7c0.2,0.7,0.4,1.5,0.1,2.2c-0.1,0.2-0.2,0.3-0.4,0.4c-0.1,0.1-0.3,0.1-0.4,0.1
	c-1.1-0.1-2.2-0.6-2.9-1.4c-0.7-0.8-1.4-1.8-1.9-2.7c-0.6-1-1.2-2.1-1-3.3c0.2-1.2,1.3-2.1,2.4-2.8c2.2-1.4,2.2,0.2,2.7,2.1
	S292.8,199.9,293.3,201.7z"/>
<polygon class="st6" points="299.5,174 300.6,172.2 299.6,175.6 "/>
<path class="st6" d="M328.9,194.4l2.5,1.1l1.1-7.7l-2.4-1.3C331.7,188.5,330.3,192,328.9,194.4z"/>
<path class="st6" d="M339,185.6c0,0-8.1,0.5-11.5-1.7"/>
<g class="st14">
	<path d="M338,190.7c1.1-1.9,2.5-3.7,4.1-5.3c0.4-0.2,0.8-0.5,1.2-0.6l12.6-2.6l0.7-0.2c0,0,0.1-24.5-8.6-27.9
		c-4.9-1.9-9.5-4.4-13.6-7.6l1-0.3c0,0,5.2,4.6,13.9,7.9c8.7,3.4,8.6,27.9,8.6,27.9h-1.3l-12.9,2.5c0,0-0.6,0.5-0.7,0.7
		c-1.6,1.6-3,3.4-4.1,5.4c-1.7,3.2-2.1,6.9-1.1,10.3h-1.3C335.3,197.1,336.4,193.5,338,190.7z"/>
	<path d="M303.5,147.4c0.2,0,0.4-0.1,0.6-0.1c0.9,0.1,1.8,0.2,2.7,0.2C305.7,147.5,304.6,147.5,303.5,147.4z"/>
	<path d="M322,149.9l-8-4c0.2-0.1,0.3-0.3,0.4-0.4l8.3,4.2L322,149.9z"/>
</g>
<path class="st7" d="M352.4,174.9l5.3,6.5l1.1,17.7c0,0,1.4,9-8.9,6.8c-10.3-2.2-22.3-8.9-22.3-8.9s5.8-7.7,2.6-10.6l14.8,4.8
	c0,0,2.5-0.5,0.5-2.7c-2-2.2-2.3-6.1-2.3-6.1L352.4,174.9z"/>
<path class="st6" d="M354.8,193.6l2.9,3.4C356.2,196.5,355.1,195.2,354.8,193.6z"/>
<polygon class="st6" points="349.8,193 354.4,198.9 352.1,199.4 "/>
<path class="st6" d="M304.2,121c-0.5-1.2-0.1-2.7,0.5-3.8c0.6-1.2,1.4-2.3,1.9-3.5c0.7-1.9,0.5-4,1.2-5.8c1.3-3.2,5-4.7,8.3-5.8
	c1-0.3,2-0.6,3-0.4c1.3,0.3,2.2,1.5,3.3,2.3c4.5,3.3,11.8-0.3,16.1,3.2c1.7,1.3,2.5,3.5,2.7,5.6c0.2,2.1,0,4.3,0,6.4
	c-0.1,3.7,0.6,7.8,3.4,10.3c0.8,0.7,1.8,1.3,2.7,2.1c0.8,0.8,1.5,1.8,1.3,3c-0.1,0.5-0.3,1-0.4,1.5c-0.6,1.9,0.3,4,1.3,5.8
	c3,5.2,8.4,9.5,14.4,9.6c-0.4,3-3.6,4.8-6.4,6.1c-3.6,1.6-7.3,3.2-11.3,3c-3.9-0.2-8-2.7-8.7-6.6c-0.2-1.3-0.2-2.9-1.3-3.6
	c-0.7-0.4-1.6-0.3-2.3-0.6c-1.1-0.4-1.6-1.7-2-2.8c-0.7-2.3-1.1-4.7-1.2-7.1c0-2.9,0.3-6-1.3-8.3c-1.5-2.2-4.2-3.3-5.9-5.3
	c-1.6-1.9-3.3-4.1-6-4.4C313.8,121.4,306.3,126.3,304.2,121z"/>
<path class="st9" d="M304.2,120.4c-0.5-1.2-0.1-2.7,0.5-3.8c0.6-1.2,1.4-2.3,1.9-3.5c0.7-1.9,0.5-4,1.2-5.8c1.3-3.2,5-4.7,8.3-5.8
	c1-0.3,2-0.6,3-0.4c1.3,0.3,2.2,1.5,3.3,2.3c4.5,3.3,11.8-0.3,16.1,3.2c1.7,1.3,2.5,3.5,2.7,5.6c0.2,2.1,0,4.3,0,6.4
	c-0.1,3.7,0.6,7.8,3.4,10.3c0.8,0.7,1.8,1.3,2.7,2.1c0.8,0.8,1.5,1.8,1.3,3c-0.1,0.5-0.3,1-0.4,1.5c-0.6,1.9,0.3,4,1.3,5.8
	c3,5.2,8.3,9.5,14.4,9.6c-0.4,3-3.6,4.8-6.4,6.1c-3.6,1.6-7.3,3.1-11.3,2.9s-8-2.7-8.7-6.6c-0.2-1.3-0.2-2.9-1.3-3.6
	c-0.7-0.4-1.6-0.3-2.3-0.6c-1.1-0.4-1.6-1.7-2-2.8c-0.7-2.3-1.1-4.7-1.2-7.1c0-2.9,0.3-6-1.3-8.3c-1.5-2.2-4.2-3.3-5.9-5.3
	c-1.6-1.9-3.3-4.1-6-4.4C313.8,120.7,306.3,125.6,304.2,120.4z"/>
<path class="st6" d="M314.2,156.4l8.1-6.5c0,0-5.5-3-6.2-5.5s-5.1,1.2-4.6,3.5C311.9,150.1,314.2,156.4,314.2,156.4z"/>
<path class="st7" d="M314.5,155.4l8.1-6.5c0,0-5.5-3-6.1-5.5c-0.6-2.5-5.1,1.2-4.6,3.5C312.2,149.1,314.5,155.4,314.5,155.4z"/>
<circle class="st6" cx="322.8" cy="154.3" r="0.6"/>
<circle class="st6" cx="322.8" cy="157.9" r="0.6"/>
<circle class="st6" cx="322.8" cy="161.4" r="0.6"/>
<g class="st14">
	<path d="M307.4,111.3c0.6-1.7,0.5-3.7,1.1-5.5c-0.3,0.4-0.5,0.8-0.7,1.3c-0.7,1.8-0.5,3.9-1.2,5.8l0,0.1
		C306.9,112.5,307.2,111.9,307.4,111.3z"/>
	<path d="M358.3,155.2c-3.6,1.6-7.3,3.1-11.3,2.9c-3.9-0.2-8-2.7-8.7-6.5c-0.2-1.3-0.2-2.9-1.3-3.6c-0.7-0.4-1.6-0.3-2.3-0.6
		c-1.1-0.4-1.6-1.7-2-2.8c-0.7-2.3-1.1-4.7-1.2-7.1c0-2.9,0.3-6-1.3-8.3c-1.5-2.2-4.2-3.3-5.9-5.3c-1.6-1.8-3.3-4.1-6-4.4
		c-3.6-0.5-11.1,4.4-13.2-0.8c-0.3-1-0.3-2.1,0.1-3c-0.2,0.3-0.3,0.5-0.4,0.8c-0.6,1.2-1,2.6-0.5,3.8c2.1,5.2,9.6,0.3,13.2,0.8
		c2.6,0.4,4.4,2.6,6,4.4c1.7,2,4.4,3.1,5.9,5.3c1.6,2.4,1.2,5.5,1.3,8.3c0,2.4,0.4,4.8,1.2,7.1c0.4,1.1,0.9,2.3,2,2.8
		c0.7,0.3,1.6,0.2,2.3,0.6c1.1,0.7,1.1,2.3,1.3,3.6c0.7,3.8,4.8,6.3,8.7,6.5c3.9,0.2,7.7-1.4,11.3-2.9c2.6-1.1,5.5-2.7,6.2-5.3
		C362.5,153.2,360.3,154.3,358.3,155.2z"/>
</g>
<linearGradient id="SVGID_3_" gradientUnits="userSpaceOnUse" x1="428.9481" y1="4.7037" x2="428.9481" y2="265.3307" gradientTransform="matrix(1 0 0 -1 -31.16 395.7682)">
	<stop  offset="0" style="stop-color:#808080;stop-opacity:0.25"/>
	<stop  offset="0.54" style="stop-color:#808080;stop-opacity:0.12"/>
	<stop  offset="1" style="stop-color:#808080;stop-opacity:0.1"/>
</linearGradient>
<path class="st16" d="M436.9,180.3c-9.4-5.4-13-6.7-13-6.7l-0.2-0.1c-1-0.8-1.8-1.8-2.4-3c0-0.2,0-0.4,0-0.6c0,0,0,0,0,0.1
	c0.1-2.9,2.2-5.5,4.1-7.7l5-5.8c0.6-0.6,1-1.3,1.3-2c0.1-0.4,0.1-0.8,0.1-1.2c0-0.2,0-0.3,0-0.5c0-1.4-0.1-2.9-0.1-4.3
	c0-1.3-0.4-2.8-1.6-3.1c-0.7-0.1-1.5,0.1-1.9-0.4c-0.1-0.2-0.1-0.5-0.1-0.7c0,0,0,0,0,0.1v-0.1c0.2-1,0.4-2,0.5-3c0-0.5,0-1-0.2-1.5
	c-0.7-2.1-3.3-2.9-5.5-3.3c-2.2-0.4-4.7-0.7-6.1-2.5c-0.4-0.6-0.8-1.1-1.2-1.7c-0.6-0.6-1.4-1-2.3-1.1c-2.8-0.7-5.7-0.4-8.3,0.7
	c-1.1,0.5-2.2,1.1-3.3,1.1c-1.2-0.1-2.3-0.9-3.5-1.1c-2-0.3-3.8,1.1-4.8,2.8c-0.6,1-0.9,2.1-0.9,3.3v0.2l0,0c0,1.2,0.4,2.5,1.3,3.4
	c0.8,0.9,2.1,1.5,2.5,2.6c0.1,0.5,0.1,1,0.2,1.4c0,0.1,0,0.1,0.1,0.2l-0.1,0.1c-2,2.6-3.1,5.8-3.1,9c0,6.5,4.3,12.3,10.6,14.2
	c0,0.1,0,0.3,0,0.4c0,1.8-0.5,3.6-2,5l-13.3,5.3c0,0-8-1-10.9,10.8c-0.5,1.9-0.6,3.9-0.5,5.9c0.1,1.8-0.1,4.9-2.2,8.9
	c-3.3,6.4-2.5,21.2,4.2,22.7c6.4,1.4,8.9,0.8,9.1,0.7v0.3c-0.1,2.8-1.1,26.7-4.8,29.6c-1,0.8-0.8,1.3,0,1.7c0,0,0,0.2,0,0.4
	c-0.1,1.8-0.7,8.4-3.1,12.2c-2.9,4.4-2.6,29.7-2.6,29.7l-1.9,14.9c0,0,1.2,9.2,0,10.8c-1.1,1.4-2.5,35.5-2.8,42.9h-0.1
	c-1.2,0.1-2.3,0.7-2.9,1.8c-1.6,2.6-7.1,7.3-7.1,7.3c-1.2,1.7-5.6,3.3-8,4.1c-0.3,0.1-0.6,0.2-0.9,0.4c-0.9,0.5-1.6,1.2-2,2.1
	c-0.3,0.5-0.4,1.2-0.2,1.8c0.6,1.5,13,2.5,16.2,1c2.5-1.1,12.3-2.7,16.3-3.3c1.5-0.2,2.7-1.4,2.9-2.9c0.1-0.5-0.1-1-0.4-1.5l0,0
	c-0.8-1-1.2-3.6-1.3-5.3c0.3-0.1,0.6-0.3,0.9-0.5c-0.3-5.3,0.4-10.6,2.2-15.7c3-7.9,3.9-22.5,3.1-32.1c0,0,9.1-39.2,16.3-42.9l0,0
	c0.1,0.1,3.6,4.6,4,18.4c0.4,14.1,5.5,23.3,5.5,23.3s-2.3,23.9,0,32.8l-2.9,14.1c-0.2-0.2-0.4-0.3-0.4-0.3s0.1,0.4,0.2,1l-0.1,0.3
	l0.1,0c0.3,1.8,0.8,4.8,0.6,6.7c-0.1,1-0.4,2.4-0.6,3.8c-0.3,2.2-0.4,4.3,0.7,4.7c1.9,0.8,12.9,1.8,14.8-0.6c0.9-1,1.1-2.4,0.5-3.6
	c-0.1-0.3-0.3-0.6-0.5-0.9c0,0-2.9-4.8-2.1-8.1c0.2-0.7,0-1.4-0.4-1.9c0.1-1.6,0.8-9.3,2.5-15.8c1.9-7,5.8-22.5,2.9-32.6l0,0
	c-0.1-0.4-0.2-0.8-0.4-1.2c-1.7-5.5-2.2-11.4-1.7-17.1c-1.1-4.9-1.1-10,0-14.9c1.8-8.2,3.1-16.2,3.1-16.2s1-10.8,0.1-17.5
	c0-0.1,0-0.3-0.1-0.4l0.5-0.1c0,0-2.5-11.3-3.4-18.4c-0.2-1.7-0.5-3.8-0.8-6.1c0.8-0.1,1.6-0.3,2.4-0.6c8.1-2.8,10.6-27.9,10.6-27.9
	v-8C443.6,198,446.3,185.7,436.9,180.3z M376.6,374.6c-0.2-0.1-0.4-0.2-0.4-0.2l0,0L376.6,374.6z"/>
<path class="st17" d="M432,325.5c3.5,10.1-0.6,26.4-2.5,33.7c-1.9,7.3-2.5,16-2.5,16c-7.5,1.2-12.9-0.3-12.9-0.3l3.1-15
	c-2.2-8.9,0-32.7,0-32.7s-5-9.2-5.4-23.2c-0.4-13.8-3.8-18.2-3.9-18.4l0,0c-7,3.6-15.9,42.7-15.9,42.7c0.7,9.5-0.2,24.1-3.1,31.9
	c-1.8,5-2.5,10.3-2.2,15.6c-1,0.9-2.4,1-4,0.8c-4.2-0.7-9.2-4.3-9.2-4.3s1.6-42.6,2.8-44.2c1.2-1.6,0-10.8,0-10.8l1.9-14.9
	c0,0-0.3-25.2,2.5-29.6c2.4-3.8,3-10.4,3.1-12.2c0-0.3,0-0.4,0-0.4l4.2-5.1c0,0,41-3.1,44,0c0.8,0.7,1.2,2.5,1.5,4.6
	c0.8,6.6-0.1,17.4-0.1,17.4s-1.2,8-3,16.2c-1.1,4.9-1.1,10,0,14.9C429.8,314.2,430.3,320,432,325.5z"/>
<path class="st12" d="M429.4,389.5c-1.8,2.4-12.6,1.4-14.4,0.6c-1.1-0.4-1-2.6-0.7-4.7c0.2-1.4,0.5-2.8,0.6-3.8c0.3-2.6-0.9-8-0.9-8
	s2.4,2.6,3,0c0.3-1.1,1.2-1.7,2.1-2c1.3-0.4,2.6-0.3,3.8,0.2c1.9,0.8,5.1,2.6,4.5,4.9c-0.8,3.3,2,8.1,2,8.1c0.2,0.3,0.4,0.6,0.5,0.9
	C430.5,387.1,430.3,388.5,429.4,389.5z"/>
<path class="st6" d="M429.4,389.5c-1.8,2.4-12.6,1.4-14.4,0.6c-1.1-0.4-1-2.6-0.7-4.7c1.2,0.5,3.1,1,6.4,0.7
	c0.8-0.1,1.5-0.1,2.3-0.1c2.3,0.1,4.7,0.1,7-0.1C430.5,387.1,430.3,388.5,429.4,389.5z"/>
<path class="st6" d="M391.9,328.5c0.7,9.5-0.2,24.1-3.1,31.9c-1.8,5-2.5,10.3-2.2,15.6c-1,0.9-2.4,1-4,0.8
	c0.9-6.2,4.6-32.7,7.1-53.6c2.7-23.8,15.6-40.3,15.6-40.3l2.6,2.8C400.8,289.4,391.9,328.5,391.9,328.5z"/>
<path class="st18" d="M425,175.2l-1.8,8.8l-8.8,14.7l-10.8-4.6c0,0-14.7-15.3-5.4-17.5c1.1-0.2,2.1-0.7,3.1-1.4
	c1.8-1.4,2.4-3.3,2.4-5.3c-0.1-2.2-0.6-4.3-1.5-6.3l18.9-5.9c-0.8,2.5-1.2,5-1.3,7.6c-0.1,5.1,1.8,7.7,3.3,8.9
	C423.7,174.6,424.3,174.9,425,175.2z"/>
<path class="st6" d="M421.1,157.6c-0.8,2.5-1.2,5-1.3,7.6c-0.3,0.4-0.7,0.8-1.1,1.2c-4,3.8-9.7,5.1-14.9,3.4
	c-0.1-2.2-0.6-4.3-1.5-6.3L421.1,157.6z"/>
<path class="st18" d="M423.3,155.2c0,8.2-6.7,14.9-14.9,14.9c-8.2,0-14.9-6.7-14.9-14.9c0-8.2,6.7-14.9,14.9-14.9c0,0,0,0,0,0
	c8.2,0,14.9,6.6,14.9,14.7C423.3,155.1,423.3,155.2,423.3,155.2z"/>
<path class="st6" d="M425,175.2l-1.8,8.8l-8.8,14.7l-10.8-4.6c0,0-14.7-15.3-5.4-17.5c1.1-0.2,2.1-0.7,3.1-1.4
	c-1.7,4.6,5.2,14,5.2,14c0.8,1.2,2.6,0.4,2.6,0.4c4.4-0.7,12.6-13.4,13.9-15.5C423.7,174.6,424.3,174.9,425,175.2z"/>
<path class="st6" d="M433.5,260c-2.6,0.6-17,3.8-22.4,3c-6-0.9-17.7-1.5-17.7-1.5s-7.4,0.4-9.7-0.6c0-0.3,0-0.4,0-0.4l4.2-5.1
	c0,0,41-3.1,44,0C432.7,256.1,433.2,257.8,433.5,260z"/>
<path class="st7" d="M406.5,189.6c0,0-7.7-10.6-4.8-14.8l-13,5.3c0,0-7.8-0.9-10.7,10.7c-0.5,1.9-0.6,3.9-0.5,5.9
	c0.1,1.8-0.1,4.9-2.1,8.9c-3.2,6.4-2.5,21.2,4.1,22.6c6.6,1.5,8.9,0.7,8.9,0.7s-0.9,26.7-4.7,29.8s9.7,2.3,9.7,2.3
	s11.7,0.6,17.7,1.5c6,0.9,22.8-3.1,22.8-3.1s-2.5-11.2-3.4-18.4c-0.9-7.1-2.9-22.4-2.9-22.4l14.9-20.2c0,0,2.6-12.2-6.6-17.6
	c-9.2-5.4-12.7-6.7-12.7-6.7s-9.3,15-14.1,15.8C409.2,190,407.3,190.8,406.5,189.6z"/>
<path class="st6" d="M389.4,193.8c0,0-0.1,4.8,0.7,6.7c0.9,1.9,4.1,12.4,4.1,12.4h-7.3c0,0,4-4.2,3.7-6.3
	C390.3,204.6,389.4,193.8,389.4,193.8z"/>
<path class="st18" d="M411.1,230.1c0,0-16.2-3.9-17.7-7.3c-1.5-3.4-5.7-10.9-5.7-10.9l1.7-2.3l7.9,6.1c0,0,9.3,7.4,13.8,8.2
	S411.1,230.1,411.1,230.1z"/>
<path class="st19" d="M411.1,230.1c0,0-16.2-3.9-17.7-7.3c-1.5-3.4-5.7-10.9-5.7-10.9l1.7-2.3l7.9,6.1c0,0,9.3,7.4,13.8,8.2
	S411.1,230.1,411.1,230.1z"/>
<path class="st18" d="M425,211.2v8.7h-1.4c-7,0-13.8,1.8-19.9,5.1l-2.6,1.5l-0.7,0.4l-4.5-10.2l4.2-3.8h0.2c1,0.1,5.5,0.5,7.4-0.2
	c1.8-0.6,4-2.6,9.4-1.2c2.6,0.7,4.9,3.6,7.4,2.7L425,211.2z"/>
<path class="st6" d="M439.2,195.3l2.9,3.3v8c0,0-2.5,25.1-10.4,27.9c-7.9,2.8-22-1.6-22-1.6s-3.6-9.6-1.9-10.2
	c1.7-0.6,15.1-4.1,15.1-4.1s-0.2-14.7,2.7-19.1c0,0-1.9-13.7,4.7-14C436.8,185.1,439.2,195.3,439.2,195.3z"/>
<path class="st7" d="M439.6,195.3l2.9,3.3v8c0,0-2.5,25.1-10.4,27.9c-7.9,2.8-22-1.6-22-1.6s-3.6-9.6-1.9-10.2
	c1.7-0.6,15.1-4.1,15.1-4.1s-0.2-14.7,2.7-19.1c0,0-1.9-13.7,4.7-14C437.3,185.1,439.6,195.3,439.6,195.3z"/>
<path class="st6" d="M419.2,161.6c0.1-1,0-1.9-0.3-2.8c-0.4-0.9-1.4-1.6-2.3-1.3c-1.3,0.3-1.8,1.9-3,2.3c-1,0.3-2.2-0.4-2.7-1.4
	c-0.5-1-0.5-2.1-0.5-3.2c0-1.2,0-2.4,0-3.7c0-1.3,0-2.8-0.9-3.8c-1-1.3-3.4-1.9-5-1.8c-1.1,0-2.1,0.4-2.9,1.1
	c-0.9,0.7-1.8,1.3-3,1.1c-1-0.1-1.8-0.9-2.1-1.8v0c5-6.6,14.3-7.9,20.9-2.9c6.6,4.9,7.9,14.3,3,20.8c-0.5,0.7-1.1,1.3-1.7,1.9
	C418.9,164.5,419.1,163,419.2,161.6z"/>
<path class="st20" d="M398.6,147.7c-1-0.2-1.8-0.9-2.1-1.8c-0.1-0.5-0.1-1-0.2-1.4c-0.3-1.1-1.6-1.7-2.4-2.6
	c-1.6-1.7-1.5-4.6-0.4-6.7c0.9-1.7,2.8-3.1,4.7-2.8c1.2,0.2,2.2,1,3.4,1.1c1.2,0.1,2.2-0.6,3.3-1.1c2.5-1.2,5.4-1.4,8.1-0.7
	c0.8,0.2,1.6,0.6,2.2,1.1c0.4,0.5,0.8,1.1,1.2,1.7c1.4,1.7,3.8,2.1,6,2.5c2.2,0.4,4.6,1.3,5.3,3.3c0.5,1.4,0,2.9-0.3,4.3
	c-0.1,0.3-0.1,0.6,0.1,0.9c0.3,0.6,1.2,0.3,1.8,0.4c1.2,0.3,1.5,1.8,1.6,3.1c0.1,1.4,0.1,2.9,0.1,4.3c0,0.5,0,1.1-0.1,1.6
	c-0.3,0.7-0.7,1.4-1.2,2l-4.8,5.8c-2.1,2.6-4.4,5.6-4,8.9c-1,0.4-2.2-0.4-2.6-1.5c-0.3-1.1-0.1-2.2,0.2-3.3c0.4-1.9,0.7-3.8,0.8-5.7
	c0.1-1,0-1.9-0.3-2.8c-0.4-0.9-1.4-1.6-2.3-1.3c-1.3,0.3-1.8,1.9-3,2.3c-1,0.3-2.2-0.4-2.7-1.4c-0.5-1-0.5-2.1-0.5-3.2v-3.7
	c0-1.3,0-2.8-0.9-3.8c-1-1.3-3.4-1.9-5-1.8c-1.1,0-2.1,0.4-2.9,1.1C400.7,147.3,399.7,147.9,398.6,147.7z"/>
<path class="st6" d="M401.9,193.5l4.6,18.8C406.5,212.2,410.1,212.2,401.9,193.5z"/>
<path class="st6" d="M417.6,190.3c0,0-6,9.8-3.7,19.9l1.1,0.1C415,210.3,413,205.6,417.6,190.3z"/>
<path class="st6" d="M421.4,245.7c0,0,7.4-2.4,7.9,3.2C429.3,249,427.9,245.1,421.4,245.7z"/>
<path class="st6" d="M400.1,213.4c0,0-1.5,10.2,1.2,14.3c0,0-5.3,2.2-12.9,1.8l-0.9-16L400.1,213.4z"/>
<path class="st6" d="M401.1,226.5l-0.7,0.4l-4.5-10.2l4.2-3.8h0.2l0,0C400.2,213.4,399.1,222.2,401.1,226.5z"/>
<path class="st7" d="M400.1,212.9c0,0-1.5,10.2,1.2,14.3c0,0-5.3,2.2-12.9,1.8l-5.1-16L400.1,212.9z"/>
<path class="st12" d="M387.4,383.3c-0.2,1.5-1.3,2.7-2.8,2.9c-4,0.6-13.5,2.1-16,3.2c-3.1,1.5-15.2,0.4-15.8-1
	c-0.2-0.6-0.1-1.2,0.2-1.8c0.4-0.9,1.1-1.6,2-2.1c0.3-0.2,0.6-0.3,0.9-0.4c2.3-0.8,6.6-2.4,7.8-4.1c0,0,5.4-4.7,6.9-7.2
	c0.6-1,1.6-1.7,2.8-1.7c1.3-0.1,2.7,0.6,3.3,3.4c0,0,7,4,8.9,0.5c0,0,0.3,5.4,1.5,6.8l0,0C387.4,382.2,387.5,382.8,387.4,383.3z"/>
<path class="st6" d="M387.4,383.3c-0.2,1.5-1.3,2.7-2.8,2.9c-4,0.6-13.5,2.1-16,3.2c-3.1,1.5-15.2,0.4-15.8-1
	c-0.2-0.6-0.1-1.2,0.2-1.8c0.4-0.9,1.1-1.6,2-2.1c2,1.3,6.4,2.6,16,1.1c9.2-1.4,13.8-2.8,16-3.8l0,0
	C387.4,382.2,387.5,382.8,387.4,383.3z"/>
<g class="st14">
	<path d="M427.4,144.8L427.4,144.8c0.2-1.2,0.5-2.3,0.4-3.4c-0.1,0.9-0.2,1.8-0.4,2.7C427.3,144.3,427.3,144.5,427.4,144.8z"/>
	<path d="M418.8,158.4c0.2,0.5,0.4,1.1,0.4,1.7c0.1-0.8-0.1-1.6-0.4-2.3c-0.4-0.9-1.4-1.6-2.3-1.3c-1.3,0.3-1.8,1.9-3,2.3
		c-1,0.3-2.2-0.4-2.7-1.4c-0.5-1-0.5-2.1-0.5-3.2c0-1.2,0-2.4,0-3.7c0-1.3,0-2.8-0.9-3.8c-1-1.3-3.4-1.9-5-1.8
		c-1.1,0-2.1,0.4-2.9,1.2c-0.9,0.7-1.8,1.3-3,1.1c-1-0.2-1.8-0.9-2.1-1.8c-0.1-0.5-0.1-1-0.2-1.4c-0.3-1.1-1.6-1.7-2.4-2.6
		c-0.8-0.9-1.2-2-1.2-3.1c-0.1,1.4,0.3,2.7,1.2,3.7c0.8,0.9,2.1,1.5,2.4,2.6c0.1,0.4,0.1,1,0.2,1.4c0.3,1,1.1,1.7,2.1,1.8
		c1.2,0.2,2.2-0.3,3-1.1c0.8-0.7,1.8-1.1,2.9-1.2c1.6,0,4,0.5,5,1.8c0.8,1,0.9,2.5,0.9,3.8c0,1.2,0,2.4,0,3.7c0,1.1,0,2.2,0.5,3.2
		c0.5,1,1.6,1.7,2.7,1.4c1.2-0.4,1.8-2,3-2.3C417.4,156.9,418.4,157.6,418.8,158.4z"/>
	<path d="M430.8,154.4c-0.3,0.7-0.7,1.4-1.2,2l-4.8,5.8c-2,2.4-4.2,5.3-4,8.4c0.1-2.9,2.1-5.4,4-7.7l4.8-5.8c0.6-0.6,1-1.3,1.2-2
		c0.1-0.5,0.2-1.1,0.1-1.6C431,153.8,430.9,154.1,430.8,154.4z"/>
	<path d="M418.2,169.6c-0.1-0.3-0.1-0.5-0.1-0.8c0,0.5,0,1,0.1,1.4c0.3,1.1,1.5,1.9,2.6,1.5c0-0.2,0-0.4-0.1-0.6
		C419.7,171.5,418.6,170.6,418.2,169.6z"/>
</g>
<path class="st6" d="M369.6,374.2c0,0,1.5,2.7,7.1,0.3"/>
<path class="st6" d="M416.5,374.8c0,0,4.8,5.6,10.8,1.8"/>
<path class="st6" d="M430.4,308.5c0,0-3.4,2.1-3.5,3.3c-0.1,1.2,1.7-0.9,1.7-0.9L430.4,308.5z"/>
<path class="st6" d="M431.7,324.6c-1.2,1-2.6,1.5-4.2,1.6c-2.5,0.1-2.3,3.4-0.7,2.4C428.5,327.6,431.7,324.6,431.7,324.6z"/>
<path class="st6" d="M432.4,326.7c0,0-1.6,7.9-2.9,6.4"/>
<linearGradient id="SVGID_4_" gradientUnits="userSpaceOnUse" x1="584.6465" y1="8.5959" x2="584.6465" y2="269.7408" gradientTransform="matrix(-1 0 0 -1 748.03 395.7682)">
	<stop  offset="0" style="stop-color:#808080;stop-opacity:0.25"/>
	<stop  offset="0.54" style="stop-color:#808080;stop-opacity:0.12"/>
	<stop  offset="1" style="stop-color:#808080;stop-opacity:0.1"/>
</linearGradient>
<path class="st21" d="M119.5,386.2c0,0,10.2,2.8,15.1-0.9c4.9-3.7,7-2.5,7-2.5s11.7-0.6,12.6-3.4c1-2.7-4.5-12.7-4.5-12.7
	c-0.4-0.9-1-2-1.2-2l0.1-4.2l0,0l1.7-17.6c3.9-10,0.1-22.9,0.1-22.9l-0.7-3.2c-0.4-1.8-0.2-3.7,0.7-5.3l7.1-14.2
	c0.4-0.9,0.8-1.8,1.3-2.7c0.4-0.8,1-1.8,1.8-3c0.2-0.3,0.4-0.7,0.7-1.1c0.9-1.3,1.9-2.8,3.2-4.6c3.1-4.3,4.8-9.8,5.6-13.7l0.4,1.3h0
	h0.1l0,0l0.1,0l0,0h0.1h0l0.2,0h0.1l2.2,27.7c0.1,10.8,4.1,16.8,4.1,16.8l-0.5,23.8c0.7,5.7-0.9,13.4-1.6,16.4l-1.7,3.9
	c-1.4,0.7-2.3,2-2.5,3.5c-0.3,2.9-3.3,9-3.3,9c-1.2,1.5-3.7,5.5-3.7,5.5s-1.2,3.8-0.5,5.3s6.9,1.3,6.9,1.3
	c7.1,1.6,12.5-2.2,12.1-4.8c-0.3-2.6,1.1-3.3,1.1-3.3c2.8-0.9,2.5-2.8,2.5-2.8c0.6-3.9-0.1-7.9-2.1-11.3l-0.4,1
	c-0.1-2.1,0.2-4.1,0.8-6l-0.3,0.2l-0.1,0h0c0.4-3.9,4.5-11.1,4.5-11.1c7.5-13.2,4.8-31,4.8-31l-1.2-5.6l-0.1-2.1
	c-0.2-5,0.2-10,1.1-14.9c0.4-2.2,0.8-4.8,1.1-7.7c0.7-6.1,2.9-12.5,3.9-15.2l0.3-0.1h0c0.4-0.1,0.8-0.1,1.2-0.2h0.1
	c0,0,0.2-1.3,0.4-3.5c0.1-1.4,0.2-3.2,0.2-5.2c0-6.2-0.9-12.3-2.8-18.2l0.2-0.3c0,0,0.5-0.7,1.5-2l0,0c1.8-2.3,4.6-5.8,8.1-9.7
	c6.2-7.1,4.4-14.2,4.4-14.2s-4.5-16.4-6.5-26.3c-1.1-5.6-3.3-9.4-4.9-11.7c0.4-1.6,0.6-3.1,0.6-4.7c0.1-2.9,0-6-1.3-8.6
	c-1.3-2.6-4.1-4.7-7-4.3c-0.4,0.1-0.8,0.1-1.3,0c-0.3-0.2-0.6-0.4-0.8-0.7c-1.7-2.4-1.8-5.5-1.3-8.4s1.6-5.6,2.1-8.5
	c0.5-2.9,0.3-6-1.6-8.3c-2.1-2.7-5.9-3.4-8.7-5.4c-2-1.4-3.4-3.4-5.5-4.7c-2.1-1.2-4-0.8-6.3-0.3c-3.8,0.8-7.4,1.2-10.9,2.8
	c-3.6,1.6-6.9,4-9.5,6.9c-0.9,0.9-1.7,2.1-2.1,3.3c-0.9,2.9,0.8,6.1,0.5,9.1c-0.3,2.2-1.5,4-2.5,5.9c-1,1.9-1.8,4.2-1,6.2
	c1.2,3.1,5.3,3.8,8.3,5.5c0.4,0.2,0.7,0.5,1,0.8c0.7,1.3-0.8,2.6-1.7,3.7c-0.5,0.7-0.9,1.4-1.1,2.3c-2.5,1-4.3,3.2-4.8,5.8
	c-1,4.5,0.5,10.1,1.9,13.8c-1.5,8.3,0.4,11.6,1.9,12.8c1.4,1.2,2.3,3,2.5,4.9v0.2c0.1,1.5,0.3,3,0.5,4.5l0,0c0-0.4-0.1-0.7-0.1-0.9
	c-1.2,2.1-3.4,7.6-4.6,16.8c-0.3,2-0.6,3.9-1.1,5.9c-0.9,3.4-1.2,7-0.9,10.5l0.2,3c-0.2,0-0.4-0.1-0.6-0.2l1.6,2.9v4.8
	c0,2.2-0.4,4.3-1.2,6.3c-0.1,0.3-0.2,0.6-0.4,0.9c-0.4,0.8-0.6,1.7-0.5,2.6c-3.4,5.1-11.1,33.9-11.1,33.9
	c-4.2,9.4,0.3,15.5,0.3,15.5s2.2,26.3,2.6,27.6s1.3,17.4,1.3,17.4l0,0c0,0.4,0,0.9,0,1.3c-0.2-0.1-0.5-0.2-0.8-0.2
	c-3.7-0.2-4.7,5.6-4.7,5.6l-7.5,7.1c0,0-3.4-0.6-8.5,3.2S119.5,386.2,119.5,386.2z M194.3,234.4L194.3,234.4l-0.2,0l0,0l-0.1,0l0,0
	l0,0l-3.5-12.1c-0.9-3.3-1-6.7-0.3-10l2.7-11.7l0,0V198l8.5,22.5C202,223.5,196.9,230.9,194.3,234.4z"/>
<path class="st22" d="M198,271.1c0,0-3.4,8.3-4.3,16.3c-0.3,2.9-0.7,5.5-1.1,7.6c-0.9,4.9-1.3,9.8-1.1,14.8l0.1,2.1l1.1,5.5
	c0,0,2.7,17.6-4.7,30.6c0,0-4.4,7.8-4.5,11.5l-3,1.1l-6-1.7c0,0,2.9-10.3,1.9-17.6l0.5-23.5c0,0-3.9-5.9-4-16.5l-2.3-29.2L198,271.1
	z"/>
<path class="st22" d="M170.7,266.9c0,0-0.7,11.4-6.4,19.2c-5.6,7.9-6.9,11.3-6.9,11.3l-7,14c-0.8,1.6-1,3.5-0.7,5.2l0.7,3.2
	c0,0,3.8,12.7-0.1,22.6l-1.8,19h-10.6c0,0-0.9-15.8-1.3-17.2s-2.6-27.3-2.6-27.3s-4.4-6-0.3-15.3c0,0,9.3-34.8,11.8-34.2
	C148.2,268.1,170.7,266.9,170.7,266.9z"/>
<g class="st14">
	<path d="M149.5,319.9l-0.7-3.2c-0.4-1.8-0.2-3.6,0.6-5.3l7-14c0,0,1.2-3.4,6.9-11.3c5.4-7.5,6.3-18.3,6.4-19.2l1.1-0.1
		c0,0-0.7,11.4-6.4,19.2c-5.6,7.9-6.9,11.3-6.9,11.3l-7,14c-0.8,1.6-1,3.5-0.7,5.2l0.7,3.2c0,0,3.8,12.7-0.1,22.6l-1.8,19h-1.1
		l1.8-19C153.3,332.6,149.5,319.9,149.5,319.9z"/>
</g>
<path class="st6" d="M182.4,359.4c0.1-3.7,4.5-11.5,4.5-11.5c7.4-13,4.7-30.6,4.7-30.6l-1.1-5.5l-0.1-2.1c-0.2-4.9,0.2-9.9,1.1-14.8
	c0.4-2.2,0.8-4.8,1.1-7.6c0.8-7.7,4-15.7,4.3-16.2l1.1,0c0,0-3.4,8.3-4.3,16.3c-0.3,2.9-0.7,5.5-1.1,7.6c-0.9,4.9-1.3,9.8-1.1,14.8
	l0.1,2.1l1.1,5.5c0,0,2.7,17.6-4.7,30.6c0,0-4.4,7.8-4.5,11.5l-3,1.1l-0.6-0.2L182.4,359.4z"/>
<path class="st23" d="M179,359.3c1.6,0.6,3.5,0.4,4.9-0.6c-1,2.8-1.1,5.9-0.4,8.8c1.2,4.8-11.3-3.9-11.3-3.9l2.7-6.1
	C174.9,357.5,175.9,359.5,179,359.3z"/>
<path class="st6" d="M179.9,359.5c1.4,0.3,2.8,0,4-0.9c-1,2.8-1.1,5.9-0.4,8.8c1.2,4.8-11.3-3.9-11.3-3.9l2.7-6.1c0,0,0.8,1.5,3,1.7
	C178.6,359.3,179.3,359.4,179.9,359.5z"/>
<polygon class="st22" points="150.7,246.6 155.9,246.6 155.9,217 152,216.3 "/>
<polygon class="st19" points="150.7,246.6 155.9,246.6 155.9,217 152,216.3 "/>
<path class="st24" d="M176.1,361.5c0,0,3.3-0.2,4.8,2.7l1.8,1.4l0.9-2.1c1.9,3.4,2.7,7.3,2.1,11.2c0,0,0.3,1.9-2.5,2.7
	c0,0-1.4,0.7-1.1,3.2s-5,6.3-11.9,4.8c0,0-6.1,0.1-6.8-1.3c-0.7-1.4,0.5-5.2,0.5-5.2s2.5-3.9,3.6-5.4c0,0,3-6.1,3.3-8.9
	C171.1,362.1,174.3,360,176.1,361.5z"/>
<path class="st23" d="M148.8,364l0.1-4.2c0,0-6,1.7-10.9-0.2c0,0,0.4,4.2-0.3,4.8s2.3,6,2.3,6l3.3,3.4l5.6-2l1.5-4.8
	C150.4,366.9,149.2,364,148.8,364z"/>
<path class="st6" d="M148.8,364l0.1-4.2c0,0-6,1.7-10.9-0.2c0,0,0.4,4.2-0.3,4.8s2.3,6,2.3,6l3.3,3.4l5.6-2l1.5-4.8
	C150.4,366.9,149.2,364,148.8,364z"/>
<path class="st24" d="M137.3,362.5c0,0,3.2,0.4,2.8,4.4s0.2,0,0.2,0s3.4,1.4,4.6,3.3s3.4-1.7,3.6-2.7s1.5-1.5,1.5-1.5
	s5.3,9.9,4.4,12.6c-0.9,2.7-12.4,3.3-12.4,3.3s-2.1-1.2-6.9,2.5c-4.8,3.7-14.8,0.9-14.8,0.9s-8.1-3.4-3.2-7.1
	c4.9-3.7,8.3-3.1,8.3-3.1l7.4-7.1C132.8,368,133.8,362.3,137.3,362.5z"/>
<path class="st25" d="M175.5,129.2c2,1.2,3.5,3.2,5.4,4.6c2.7,2,6.4,2.7,8.5,5.3c1.8,2.2,2,5.4,1.5,8.2c-0.5,2.8-1.6,5.5-2.1,8.4
	s-0.4,5.9,1.3,8.3c0.2,0.3,0.5,0.6,0.8,0.7c0.4,0.1,0.8,0.1,1.2,0c2.9-0.3,5.6,1.7,6.9,4.3c1.3,2.6,1.4,5.6,1.3,8.5
	c-0.1,2.4-0.4,4.8-1.4,6.9c-1.8,3.6-5.5,5.9-9.1,7.6c-2.4,1.1-4.8,2.1-7.3,2.9c-1.7,0.6-3.5,1.1-5.3,0.8c-3-0.5-5.2-3.3-8.1-4.4
	c-2.4-0.9-5-0.6-7.5-0.3c-2.1,0.2-4.6,0.2-6.1-1.4c-1.9-2-1-5.2-0.1-7.8c-3.1-0.2-5.4-2.8-5.2-5.9c0.1-1.2,0.5-2.3,1.3-3.2
	c0.9-1.1,2.4-2.4,1.7-3.7c-0.2-0.4-0.6-0.6-1-0.8c-2.9-1.6-6.9-2.3-8.1-5.4c-0.8-2,0-4.2,1-6.1c1-1.9,2.2-3.7,2.5-5.9
	c0.4-3-1.3-6.1-0.5-9c0.4-1.2,1.2-2.4,2.1-3.3c2.6-2.9,5.8-5.2,9.3-6.8c3.5-1.6,7-2,10.7-2.7C171.6,128.5,173.4,128,175.5,129.2z"/>
<path class="st22" d="M155.9,173.9c0,0-8.5-0.4-10.1,6.8c-1.6,7.2,3.5,17.6,3.5,17.6L155.9,173.9z"/>
<path class="st19" d="M155.9,173.9c0,0-8.5-0.4-10.1,6.8c-1.6,7.2,3.5,17.6,3.5,17.6L155.9,173.9z"/>
<path class="st22" d="M150.4,195.4l3.2,2.5l15,0.7l9.4-6.4l9.6-16.3c-5.8-1.5-8.2-5.5-9.1-9.3c-0.6-2.5-0.6-5.2-0.2-7.7
	c0,0-15.3-7.9-13.4,4.4c0.3,1.5,0.3,3.1,0.1,4.6c-0.9,7.2-7.9,5.9-7.9,5.9l-2.7,4.2l-3.1,10.2L150.4,195.4z"/>
<path class="st6" d="M165,163.2c0.3,1.5,0.3,3.1,0.1,4.6c4.4,2,9.5,1.5,13.5-1.3c-0.6-2.5-0.6-5.2-0.2-7.7
	C178.4,158.8,163.1,150.9,165,163.2z"/>
<ellipse class="st22" cx="170.8" cy="155" rx="13.6" ry="13.5"/>
<path class="st7" d="M161.2,192.8c0.3,0,0.7,0,1,0.1c1.8,0.2,9.2,0.6,13.4-4.5c4.7-5.6,11-12.6,11.3-12.9l0,0l6.4,1.9
	c0,0-5.1-1.8-8.5,7.6c-1.5,4.1-0.2,8.6,3.3,11.2c1.2,0.9,2.7,1.5,4.2,1.8c0,0,0,0,0,0v4.1l0,0l-2.6,11.5c-0.7,3.3-0.7,6.7,0.2,9.9
	l4,14.1l0,0c-0.6,0.4-25.4,17.3-42,5.6l0,0c0.1-0.5,2.1-17.1,0.7-25.2c-0.4-2.1-0.6-4.2-0.7-6.3c0-0.1,0-0.1,0-0.2
	c-0.1-1.9-1-3.6-2.4-4.8c-1.5-1.3-3.5-4.9-1.5-14.3c0.5-2.3,1.3-4.6,2.2-6.8l5.6-12.5l0,0l5.1,0.1 M160.9,173.6
	c-0.4,0.5-6.4,8-7,12.7c-0.6,4.5-1.4,5.9,7.3,6.5L160.9,173.6z"/>
<path class="st22" d="M197.6,179.7c0,0,5,4.3,7,14c2,9.7,6.4,25.9,6.4,25.9s1.8,7.1-4.3,14c-6.1,7-10.1,12.4-10.1,12.4l-4,5.9
	c-0.7,1-1.7,1.7-2.9,2c-1.8,0.5-4.6,0.8-7.1-0.5c-1.8-1-2.6-3.3-1.8-5.2l0.9-2.1c0,0-8.2,5.2-9,2.3c-0.7-2.9,9.6-5.7,9.6-5.7
	s8.5-1.4,10.2-5.4c0,0,9.1-11.7,8.4-15.7l-8.8-23.6c0,0-11-1.5-7.3-13.8C188.7,171.9,197.6,179.7,197.6,179.7z"/>
<path class="st17" d="M144.9,268.6c0,0,20.2,4,24.9,3.5l0.5,1.7c0,0,7.7,1.7,25-1c1.1-0.2,2.3-0.4,3.5-0.6l0.4-0.1
	c0,0,0.2-1.3,0.4-3.5c0.4-4.9,0.6-14.5-2.9-24.3l-2.9-8.9c0,0-18,10.7-29.9,9.8c-1.1-0.1-2.1-0.2-3.2-0.2c-2.4-0.1-6.2,0-8.7-2
	l-5.2,0.9v14.6c0,2.1-0.4,4.3-1.2,6.3c-0.1,0.3-0.2,0.6-0.4,0.9C144.8,266.6,144.7,267.6,144.9,268.6z"/>
<path class="st6" d="M170.3,269.3v4.6c0,0,8.8,2,28.9-1.7c0,0,0.2-1.3,0.4-3.5C193.4,269.7,176.4,272,170.3,269.3z"/>
<path class="st6" d="M144.9,268.6c0,0,20.2,4,24.9,3.5l0.5,1.7v-4.6c-2.3,0.9-18.7-3-24.6-4.5c-0.1,0.3-0.2,0.6-0.4,0.9
	C144.8,266.6,144.7,267.6,144.9,268.6z"/>
<path class="st17" d="M193.7,263.6l1.5,9.2c1.1-0.2,2.3-0.4,3.5-0.6c-0.5-2.7-1.5-8.9-1.2-9.9l-1.9-1.6L193.7,263.6z"/>
<path class="st6" d="M193.9,263.4l1.5,9.2c1.1-0.2,2.3-0.4,3.5-0.6c-0.5-2.7-1.5-8.9-1.2-9.9l-1.9-1.6L193.9,263.4z"/>
<g class="st26">
	<path d="M162.8,245.2c-1.1-0.1-2.1-0.2-3.2-0.2c-2.4-0.1-6,0-8.5-1.8l0.9-0.2c2.5,2,6.2,1.9,8.7,2c1.1,0,2.1,0.1,3.2,0.2
		c0.3,0,0.7,0,1.1,0.1C164.2,245.2,163.5,245.2,162.8,245.2z"/>
	<path d="M194.1,272.8c1.1-0.2,2.3-0.4,3.5-0.6l0.4-0.1c0,0,0.2-1.3,0.4-3.5c0.4-4.9,0.6-14.5-2.9-24.3l-2.7-8.4
		c0.6-0.3,0.9-0.5,0.9-0.5l2.9,8.9c3.5,9.8,3.3,19.4,2.9,24.3c-0.2,2.2-0.4,3.5-0.4,3.5l-0.4,0.1c-1.2,0.2-2.4,0.4-3.5,0.6
		c-8.1,1.3-14.1,1.6-18.1,1.6C182.8,274.3,188.5,273.7,194.1,272.8z"/>
	<path d="M168.7,272.1L168.7,272.1l-0.6,0C168.3,272.2,168.5,272.1,168.7,272.1z"/>
</g>
<ellipse class="st23" cx="196.2" cy="263.7" rx="0.8" ry="1.6"/>
<path class="st22" d="M147.7,232.1c1.2-9.1,3.4-14.5,4.5-16.6c0,0.3,0.2,1.2,0.2,1.5c0.2,1.3,0,3,0.1,4.7l-1.1,20.6l1.5,6.4
	c1.4,5.1-3.9,1.1-3.9,1.1c-1.1,2.4-3.1,2.1-3.1,2.1l-0.3-3.7c-0.3-3.5,0.1-7,0.9-10.3C147.1,236,147.4,234.1,147.7,232.1z"/>
<path class="st19" d="M147.7,232.1c1.2-9.1,3.4-14.5,4.5-16.6c0,0.3,0.2,1.2,0.2,1.5c0.2,1.3,0,3,0.1,4.7l-1.1,20.6l1.5,6.4
	c1.4,5.1-3.9,1.1-3.9,1.1c-1.1,2.4-3.1,2.1-3.1,2.1l-0.3-3.7c-0.3-3.5,0.1-7,0.9-10.3C147.1,236,147.4,234.1,147.7,232.1z"/>
<path class="st22" d="M198.7,243.2c-1,1.2-1.5,2-1.5,2l-4,5.9c-0.7,1-1.7,1.7-2.9,2c-1.8,0.5-4.6,0.8-7.1-0.5
	c-1.8-1-2.6-3.2-1.8-5.2l0.9-2.1c0,0-8.2,5.2-9,2.3c-0.7-2.9,9.6-5.7,9.6-5.7s8.5-1.4,10.2-5.5c0,0,0.7-0.9,1.8-2.4"/>
<path class="st17" d="M193.7,253.1c0,0-9.7-0.9-12.8-6.5l-1.4,4.6c0,0,10.2,7,12.6,6.1L193.7,253.1z"/>
<path class="st6" d="M193.4,253c0,0-9.7-0.9-12.8-6.5l-1.4,4.6c0,0,10.2,7,12.6,6.1L193.4,253z"/>
<path class="st17" d="M149.4,250.5c0,0-3.4,1.2-4.1,0.5l1.5,2.8l2.9-2.2L149.4,250.5z"/>
<path class="st6" d="M149.4,250.5c0,0-3.4,1.2-4.1,0.5l1.5,2.8l2.9-2.2L149.4,250.5z"/>
<polygon class="st6" points="170.3,269.3 170.3,263.4 168.9,269.4 "/>
<path class="st6" d="M184.1,147.8c-0.8,1.2-2.3,1.7-3.7,1.9c-1.4,0.2-2.8,0-4.2,0c-2.2,0-4.6,0.3-6.4,1.6c-1.2,0.8-2,2-2.9,3.1
	c-2.7,3.3-6.6,6.5-10.9,6.1c-0.8,0-1.5-0.3-2-0.9c-0.4-0.5-0.5-1.2-0.5-1.8c-0.2-2.8-0.1-5.5,0.3-8.3c0.2-1.7,0.6-3.4,1.3-4.9
	c0.8-1.6,1.8-3,3-4.3c1.5-1.7,3.3-3.1,5.3-4.2c2-1.1,4.4-1.4,6.6-0.8c2.6,0.7,4.6,2.7,7.1,3.8C179.7,140.3,187.2,143.5,184.1,147.8z
	"/>
<path class="st25" d="M184.1,147.3c-0.8,1.2-2.3,1.7-3.7,1.9c-1.4,0.2-2.8,0-4.2,0c-2.2,0-4.6,0.3-6.4,1.6c-1.2,0.8-2,2-2.9,3.1
	c-2.7,3.3-6.6,6.5-10.9,6.1c-0.8,0-1.5-0.3-2-0.9c-0.4-0.5-0.5-1.2-0.5-1.8c-0.2-2.8-0.1-5.5,0.3-8.3c0.2-1.7,0.6-3.4,1.3-4.9
	c0.8-1.6,1.8-3,3-4.3c1.5-1.7,3.3-3.1,5.3-4.2c2-1.1,4.4-1.4,6.6-0.8c2.6,0.7,4.6,2.7,7.1,3.8C179.7,139.8,187.2,142.9,184.1,147.3z
	"/>
<polygon class="st22" points="152,243 151.9,244.6 151.6,243.1 "/>
<polygon class="st19" points="152,243 151.9,244.6 151.6,243.1 "/>
<g class="st26">
	<path d="M186.3,183.4c-3.8,12.4,7.2,13.8,7.2,13.8l8.8,23.6c0.7,4-8.4,15.7-8.4,15.7c-0.6,1.5-2.2,2.6-4,3.5c1-0.6,1.8-1.5,2.3-2.6
		c0,0,9.1-11.7,8.4-15.7l-8.8-23.6c0,0-11-1.5-7.2-13.8c1.3-4.1,3.1-6,5-6.7C188.4,178.7,187.2,180.5,186.3,183.4z"/>
</g>
<g class="st14">
	<path d="M186.5,194.6c0.5,0.6,1.1,1.2,1.8,1.7c1.2,0.9,2.7,1.5,4.2,1.8c0,0,0,0,0,0v0.4c-1.4-0.3-2.7-0.9-3.8-1.7
		C187.8,196.3,187.1,195.5,186.5,194.6z"/>
	<path d="M152.3,212.3c0,0,0,0.1,0,0.2c0.1,2.1,0.4,4.2,0.8,6.3c1.3,7.6-0.4,22.8-0.7,24.9c-0.1-0.1-0.3-0.2-0.4-0.3l0,0
		c0.1-0.5,2.1-17.1,0.7-25.2c-0.4-2.1-0.6-4.2-0.7-6.3c0-0.1,0-0.1,0-0.2c-0.1-1.2-0.5-2.4-1.2-3.4
		C151.7,209.5,152.2,210.9,152.3,212.3z"/>
	<path d="M160.5,174.1l-4.4-0.1c0,0,0,0,0,0l-5.6,12.5c-1,2.2-1.7,4.4-2.2,6.8c-1.6,7.6-0.6,11.4,0.6,13.2c-1.4-1.6-2.8-5.4-1-13.7
		c0.5-2.3,1.2-4.6,2.2-6.8l5.6-12.5l0,0l5.1,0.1 M160.9,173.6c0,0.1-0.2,0.2-0.4,0.5L160.9,173.6z"/>
	<path d="M193.3,177.5L193.3,177.5L193.3,177.5z"/>
	<path d="M191.7,177.4l-4.4-1.3 M187.3,176.1c-0.3,0.3-6.6,7.3-11.3,12.9c-4.2,5-11.7,4.6-13.4,4.5c-0.3,0-0.7-0.1-1-0.1
		c-4.9-0.3-6.8-0.9-7.4-2.1c0.9,0.9,2.9,1.3,7,1.6c0.3,0,0.7,0,1,0.1c1.8,0.2,9.2,0.6,13.4-4.5c4.7-5.6,11-12.6,11.3-12.9l0,0
		l6.3,1.9c-0.5-0.1-1-0.2-1.6-0.1L187.3,176.1z"/>
</g>
<path class="st6" d="M140.1,369c0,0-6.1,1.7-7.3-1"/>
<path class="st6" d="M179.1,367.7c0,0-7.1,1.8-8.8-1"/>
<ellipse class="st1" cx="107.6" cy="350.6" rx="12" ry="2"/>
<ellipse class="st1" cx="60.4" cy="379.2" rx="12" ry="2"/>
<ellipse class="st1" cx="480.1" cy="367.5" rx="12" ry="2"/>
<path class="st27" d="M472,358.1c0,0,6.8-0.2,8.9-1.7s10.5-3.2,11-0.9c0.5,2.3,10.3,11.7,2.6,11.7s-17.9-1.2-20-2.4
	S472,358.1,472,358.1z"/>
<path class="st28" d="M494.6,366.5c-7.7,0.1-17.9-1.2-20-2.4c-1.6-0.9-2.2-4.4-2.4-5.9H472c0,0,0.4,5.5,2.5,6.7
	c2,1.2,12.3,2.5,20,2.4c2.2,0,3-0.8,3-2C497.2,366,496.3,366.5,494.6,366.5z"/>
</svg>
